<svg xmlns="http://www.w3.org/2000/svg" viewBox="0 0 64 64.12">
    <defs>
        <style>
            .cls-1{fill:#0051f7;}
            .cls-2{fill:#f90;}
            .cls-3{fill:#fff;}
            .cls-4{fill:#568bf4;}
            .cls-5{fill:#729ff3;}
            .cls-6{fill:#0151f7;}
            .cls-7{fill:#ff9901;}
        </style>
    </defs>
    <g id="Layer_2" data-name="Layer 2">
        <g id="Layer_1-2" data-name="Layer 1">
            <g id="KiE3WS.tif">
                <path class="cls-1" d="M0,33.7c0-.15.06-.3.07-.46a27.2,27.2,0,0,1,.59-4.49,28.57,28.57,0,0,1,3-8.06A29.67,29.67,0,0,1,13.67,10,29.23,29.23,0,0,1,26.5,5.48a23.82,23.82,0,0,1,3-.16,4.08,4.08,0,0,1,4,3.56,4.22,4.22,0,0,1-4.19,4.86,20.5,20.5,0,0,0-8.18,1.67,20.94,20.94,0,0,0-10.1,9,20.61,20.61,0,0,0-2.38,6.49,20.27,20.27,0,0,0-.33,4.91,20.62,20.62,0,0,0,3.45,10.5,21.07,21.07,0,0,0,7.81,7.07,20.6,20.6,0,0,0,5.9,2.06,19.78,19.78,0,0,0,4.73.35,20.57,20.57,0,0,0,8.64-2.31,21,21,0,0,0,8.87-8.69,21.05,21.05,0,0,0,2.55-10,4.15,4.15,0,0,1,3.55-4.14,4,4,0,0,1,4.07,1.8,4.32,4.32,0,0,1,.8,2.62c0,1-.07,2-.18,3a29.33,29.33,0,0,1-8.44,17.43,29.38,29.38,0,0,1-11.23,7,28.6,28.6,0,0,1-5.24,1.27,22.66,22.66,0,0,1-2.6.26h-1s-.05,0-.08,0H28.58l-.86,0a27,27,0,0,1-3-.32,28.06,28.06,0,0,1-5.49-1.43A29.31,29.31,0,0,1,6.52,53.14a29,29,0,0,1-5.4-10.42,27.16,27.16,0,0,1-.82-4c-.1-.8-.15-1.61-.23-2.42,0-.19,0-.37-.07-.56Z"/>
                <path class="cls-2" d="M64,25.22a.32.32,0,0,0,0,.09,4,4,0,0,1-1.87,3,3.56,3.56,0,0,1-1.36.54l-.3.08a1.78,1.78,0,0,1-.65.07A4.13,4.13,0,0,1,55.88,26c-.12-.42-.18-.85-.28-1.28a21.51,21.51,0,0,0-3.88-8.55,20.09,20.09,0,0,0-6.83-5.69,24.47,24.47,0,0,0-6.26-2.17A5.23,5.23,0,0,1,37.28,8,4,4,0,0,1,34.9,4.7,4.18,4.18,0,0,1,38.35.05a4.64,4.64,0,0,1,1.74.08,33.51,33.51,0,0,1,7.25,2.33,28.91,28.91,0,0,1,7.47,4.88A28.5,28.5,0,0,1,62.57,19a32.27,32.27,0,0,1,1.37,5.1l.06.29Z"/>
                <path class="cls-4" d="M30,64.12s.05,0,.08,0h1v0Z"/>
                <path class="cls-5" d="M27.72,64.12v0l.86,0Z"/>
                <path class="cls-6" d="M14.13,34.19A15.28,15.28,0,0,1,26.37,19.61a12.87,12.87,0,0,1,3.33-.29,4.08,4.08,0,0,1,3.84,3.52,4.14,4.14,0,0,1-1,3.43,4,4,0,0,1-3.05,1.45,7.64,7.64,0,0,0-2.28.35,6.82,6.82,0,0,0-4.38,4.27A6.92,6.92,0,0,0,27,41.19a6.46,6.46,0,0,0,2.75.4,6.65,6.65,0,0,0,5.51-3.49,6.94,6.94,0,0,0,.91-3.53,4.16,4.16,0,0,1,.9-2.66,4,4,0,0,1,2.75-1.53,4.07,4.07,0,0,1,3,.75,4.11,4.11,0,0,1,1.73,3,10.23,10.23,0,0,1,0,1.75,14.8,14.8,0,0,1-.33,2.1A15.23,15.23,0,0,1,35,48.71a14.79,14.79,0,0,1-3.75,1,15.37,15.37,0,0,1-3.25.06A15.24,15.24,0,0,1,14.51,37.93,15.83,15.83,0,0,1,14.13,34.19Z"/>
                <path class="cls-7" d="M39.23,14.52a3.9,3.9,0,0,1,1.58.33,15.61,15.61,0,0,1,5.26,3.65,14,14,0,0,1,3,5,4.15,4.15,0,0,1-2.45,5.23,4.07,4.07,0,0,1-5.31-2.42,5.66,5.66,0,0,0-2.15-2.79,9.61,9.61,0,0,0-1.66-.92,4.26,4.26,0,0,1-2.46-3,4,4,0,0,1,.12-2.38,4,4,0,0,1,1.73-2A4.27,4.27,0,0,1,39.23,14.52Z"/>
            </g>
        </g>
    </g>
</svg>