<svg id="logosandtypes_com" xmlns="http://www.w3.org/2000/svg" viewBox="0 0 150 150"><style>.st1{fill:#4ec1bc}</style><path d="M0 0h150v150H0V0z" fill="none" id="Layer_3"/><g id="extensis"><path class="st1" d="M134 41.7C118.6 18.5 96.3 8.4 68.6 10.4c-16.8 1.2-31.3 7.7-43.4 19.5C4.3 50.3-.1 80.8 15.1 105.6c13.5 22.1 34.2 32 56.8 32.7 23.1-.2 40.3-7.2 54.5-21.6 19.4-19.9 23.1-51.9 7.6-75zm-14.3 40.5c-1.2 7.3-5.3 10.9-12.7 10.9H79.7c2.3 4.7 6 7.5 11 7.7 1 0 2.1.1 3.2.1 1.9 0 3.7.5 4.3 2.5.6 2 0 3.7-1.6 5.1-4 3.2-8.8 4.6-13.6 5.4-10 1.6-20.3.3-29.6-3.9-13.7-6.1-20.8-17.1-21.9-31.8-1.2-13.2 2-25.1 12.5-34.1 6-5.2 13.1-8.1 20.7-9.4 11.4-1.9 22.6-1.3 33.4 3.4C112 44.2 119 55.2 120.3 70c.3 4.1.1 8.2-.6 12.2z"/><path class="st1" d="M76.7 53.3c-3.3-.1-5.4 1.8-5.6 5 0 .5-.1 10.2 0 12.3.2 3.3 2.4 5.2 5.6 5.1 3-.1 5.1-2 5.1-5.2.1-4 .1-8 0-12-.1-3.2-2.1-5.1-5.1-5.2z"/></g></svg>