<?xml version="1.0" encoding="UTF-8"?>
    <svg id="a" xmlns="http://www.w3.org/2000/svg" viewBox="0 0 1200 1200">
        <defs>
            <style>
                .b{fill:#318ed0;}
            </style>
        </defs>
        <path class="b" d="M230.04,274.53c6.35-10.3,8.19-38.72,1.38-54.04-30.44-29.45-71.38-45.88-114.65-43.86h.01c-.99,0-1.93,.06-2.83,.15-16.05,1.49-18.52,13.03-18.45,20.28,.03,3.41,.62,5.88,.62,5.88h0c5.14,38.61,32.09,106.51,32.09,106.51,57.63,24.3,65.86,71.22,65.86,71.22-18.6-35.01-43.48-47.74-61.29-52.26,5.82,21.24,9.13,45.24,9.23,72.25,1.81,13.82,8.25,48.26,29.03,71.3,0,0-16.85-11.18-30.23-28.38-.03,.28-.04,.57-.07,.85,0,0-2.74,28.91,7.7,55.97,4.49,11.64,11.4,22.93,22.03,31.44-.1,.16-.2,.31-.3,.47-5.64-3.44-18.41-12.71-29.27-31.03-3.32-5.59-6.47-12-9.17-19.38,0,0,1.24,8.84,4.39,19.76,4.55,15.78,13.1,35.91,27.68,39.94-26.84-4.18-35.68-34.28-35.68-34.28,3.01,31.35,23.38,40.34,29.67,42.38-11.85,15.51-24.97,29.74-38.4,41.85,36.63-24.53,66.77-54.59,83.01-96.43,2.45-5.71,4.59-11.42,6.5-17.13,21.75-65.27,8.24-130.29-23.59-193.28-3.7-7.33-7.71-15.09-11.99-22.78-8.32-14.97-17.66-29.67-27.83-40.41,11.37,7.69,22.56,18.81,33.83,34.09,4.18,5.67,8.38,11.9,12.61,18.77,39.61,64.4,50.7,129.06,29.56,194.62-2.79,8.66-6.13,16.46-10.06,25.15-3.75,8.3-7.98,17.99-12.58,22.97h-.03l-3.79,7.02c2.1,1.24,46.69,4.51,54.67-29.52,0,0-13.52,20.22-47.06,23.72,.08-.07,.14-.02,.22-.09,61.78-15.23,74.68-99.37,74.68-99.37-15,37.16-41.56,67.5-57.21,79.92,25.45-30.15,48.12-70.25,57.29-111.92-.9,1.12-1.81,2.18-2.73,3.19-15.11,16.73-32.28,20.02-32.28,20.02,19.62-12.83,29.35-28.31,36.35-46.76,4-28.95-4.74-81.58-38.37-129.7,6.88,24.15-10.55,40.9-10.55,40.9Z"/>
    </svg>