<?xml version="1.0" encoding="utf-8"?>
<!-- Generator: Adobe Illustrator 22.1.0, SVG Export Plug-In . SVG Version: 6.00 Build 0)  -->
<svg version="1.1" id="Слой_2" xmlns="http://www.w3.org/2000/svg" xmlns:xlink="http://www.w3.org/1999/xlink" x="0px" y="0px"
	 viewBox="0 0 2000 2000" style="enable-background:new 0 0 2000 2000;" xml:space="preserve">
<path d="M242.6,670.2c-1.8,2.7-3.6,5.4-5.4,8.1c-0.3-0.1-0.5-0.1-0.8-0.2c0-7.9,0-15.7,0-24.8c-3.9,3.1-7,5.6-11.2,8.9
	c0-8.5,0-15.8,0-23.4c-3.6,2.1-6.5,3.8-10.2,5.9c-0.3-12.4,5.8-22.4,7.3-34c-4.8,3.3-8.9,6.1-13,8.9c-0.4-0.2-0.7-0.4-1.1-0.7
	c0.5-1.5,1-3,1.5-4.5c3.3-10.3,6.8-20.5,9.8-30.9c1-3.4,2-7.5-3.3-9.5c4.1-4.2,8-8.2,12.1-12.4c-4-4.4-10.8-5.7-12-12.7
	c3,0.3,5.9,0.5,9.4,0.8c-5.5-8.4-12.4-14.4-21.2-20.2c5.4,0,9.8,0,14.8,0c-9.1-6.7-17.4-12.9-25.7-19.1c0.2-0.3,0.3-0.6,0.5-1
	c3.7-0.3,7.3-0.5,11.9-0.9c-10-7.1-19-13.5-28.1-19.9c0.1-0.3,0.2-0.7,0.3-1c3.6,0,7.2,0,10.9,0c0.1-0.3,0.3-0.6,0.4-1
	c-14.2-7.5-26.9-16.7-36.2-31.2c6.1,1.4,11.3,2.6,17.6,4c-1.5-1.7-2.2-2.6-3-3.4c-6.1-6.1-12.2-12.1-18.2-18.3
	c-1.7-1.7-2.8-3.9-4.9-6.8c4.6,0,7.9,0,11.2,0c0.2-0.3,0.4-0.7,0.5-1c-10.7-6-20-13.7-28-24c4.2,0,7.6,0,11.1,0
	c-7.7-8.7-15.1-17-22.6-25.4c0.3-0.3,0.5-0.7,0.8-1c3,0.3,6,0.6,9.1,0.9c-7.9-9.2-16-17.9-21.2-28.6c0.3-0.4,0.6-0.8,1-1.2
	c2.9,1.2,5.9,2.3,9.3,3.7c-4.4-8.2-8.5-16-12.9-24.3c3,0.5,5.2,0.9,8.4,1.4c-4.7-8.9-8.3-17.1-9.5-26.7c3.7,1.4,6.7,2.6,10.6,4.1
	c-5.3-11.6-10.2-22.4-15.1-33.3c0.3-0.3,0.7-0.5,1-0.8c1.6,0.7,3.3,1.5,4.9,2.2c-4.5-9.5-7.6-19.2-7-30.6c2.3,2,3.9,3.4,6.3,5.4
	c-4.1-13-9.7-24.6-10.8-37.4c0.4-0.2,0.8-0.3,1.1-0.5c1.9,2.6,3.7,5.2,5.5,7.7c0.6-14.8,1.2-29.5,1.8-44.1c0.5-0.1,0.9-0.2,1.4-0.3
	c1.2,1.5,2.3,3,4,5.1c2.4-12.5,5.6-23.9,12.6-35c0.8,3.3,1.3,5.7,2.1,9.1c0.8-1.7,1.4-2.7,1.7-3.8c12.3-33.7,45.4-55.3,81.2-52
	c31.2,2.8,61,11.6,89.5,24.2c17.1,7.6,33.6,16.8,50.2,25.5c7.9,4.1,13.9,10.5,19.4,17.4c6.4,7.9,13.1,15.6,20.1,23.7
	c0.7-2.1,1.3-3.8,2-5.7c14.9,5.8,25.1,17.2,35.7,29.2c1.3-3.5,2.2-6,3.3-9.1c5.4,5.7,10.3,10.9,15.6,16.4c0.6-1.5,1.2-2.8,1.9-4.6
	c6.2,8.7,12.1,17.1,18,25.4c0.6-0.1,1.1-0.3,1.7-0.4c0.7-2.6,1.3-5.2,2.2-8.7c2.5,4.7,4.6,8.8,6.9,12.9c2.2,4,4.4,7.9,6.7,11.8
	c0.3-0.2,0.6-0.3,0.9-0.5c0.4-1.9,0.9-3.8,1.5-6.5c7.2,9.3,13.8,17.9,21,27.2c0.8-4.2,1.4-7.5,2-11.3c11,8.5,12.7,22.2,20.3,33.3
	c1.5-3.7,2.5-6.3,4-9.9c5.6,12,10.9,23.2,16.4,35c4.6-4.7,5.3-10.4,6.6-17c7.8,13.6,11.5,28,16.6,41.7c0.6,0,1.1,0,1.7,0
	c1.9-3.5,3.8-7,5.8-10.9c3.6,5.3,7.8,10,14.7,12.1c0.6-8.8,1.1-17.4,1.7-26.8c8,3,10.8,11.3,18.4,14.3c2.2-6.2,4.3-12.3,6.6-18.8
	c4.4,2.2,8.3,4.1,13.3,6.5c1-5.4,1.8-10.1,2.7-15.2c5,3,10.1,6,16.2,9.7c-1-5.7-1.7-10.2-2.6-15.2c7.6,1.1,13.9,4.9,20.9,8.6
	c0-4.2,0-7.9,0-12.7c7.3,3.2,13.9,6,21.1,9.1c0.4-2.8,0.8-5.4,1.4-8.8c6.5,2.4,12.7,4.7,18.9,7c0.3-0.4,0.5-0.7,0.8-1.1
	c-1.1-2.9-2.2-5.8-3.5-9.2c13.4,0.2,25.3,5.6,38.9,8.4c-1.3-3.7-2.2-6.3-3.5-9.7c4.5,1,8.4,1.9,12.4,2.8c1.2,0.3,2.4,0.7,3.7,1.1
	c7.5,2.2,9,1.2,10.2-6.3c0.1-0.5,0.3-0.9,0.5-1.4c7,1,13.9,1.9,21.6,3c-1-3.1-1.7-5-2.6-7.7c7.7,2.7,14.7,5.2,22.4,7.9
	c-1.3-4.1-2.3-7.5-3.8-12.1c6.8,1.7,12.7,3.2,19.4,4.9c-1-3.3-1.9-6.3-3-9.8c7.9,1.8,15.2,3.4,23.2,5.2c-0.6-2.7-1-4.6-1.5-7
	c4.2,1,8.2,1.9,13.1,3.1c-1-3.9-1.8-7-2.8-11.1c12.6,1.8,24.7,3.6,37.2,5.4c-0.9-4.1-1.6-7.6-2.5-11.7c9.9,0.8,18.7,5,28.2,5.3
	c-0.2-2.8-0.4-4.9-0.6-7.5c4.2,1.2,7.6,2.3,12.2,3.6c-2.9-4.6-5.3-8.3-8-12.5c1.7,0,3.1-0.3,4.3,0c13.2,3.6,26.3,7.3,39.5,11
	c1.9,0.5,3.6,2.1,5.6-0.2c0.4-0.5,2.5,0.3,3.7,0.9c2.3,1.1,4.6,2.6,7.6,4.3c0.4-4,0.6-6.8,1-10.1c3.9,2.5,7.5,4.8,11,7.1
	c5.6,3.6,11.3,3.6,17,0c3.5-2.2,6.9-4.5,11-7.1c0.3,3.1,0.6,6,1,9.8c2.6-1.3,4.8-2.3,6.9-3.5c1.9-1.1,3.3-3.2,5.7-0.5
	c0.5,0.6,2.6-0.1,3.9-0.5c13-3.6,26-7.3,39-10.9c1.5-0.4,3.1-0.4,5.7-0.7c-3,4.6-5.5,8.3-8,12.1c0.2,0.2,0.3,0.5,0.5,0.7
	c3.4-1.1,6.9-2.1,10.8-3.3c0,2.5,0,4.7,0,8c9.1-2,18.2-4,28.1-6.1c-0.9,4.3-1.7,7.8-2.6,12c12.3-1.8,24.4-3.5,37.2-5.3
	c-1,3.9-1.8,7-2.8,11.1c4.8-1.1,8.7-2,13.1-3c-0.5,2.2-1,4.1-1.7,7c7.9-1.8,15.3-3.4,23.2-5.1c-0.9,3.3-1.7,6.3-2.7,9.7
	c6.4-1.6,12.3-3.1,19.2-4.9c-1.4,4.5-2.5,7.9-3.8,12.2c7.5-2.6,14.4-5.1,22.2-7.8c-0.8,2.5-1.3,4.4-2,6.8c7.2,0.8,13.9-1,21.1-2.6
	c0.3,1.4,0.7,2.5,0.8,3.7c0.7,4.8,2.3,6.1,7.1,5.2c3.1-0.6,6.1-1.7,9.2-2.6c2.2-0.6,4.3-1,6.5-1.4c0.9-0.2,1.9,0,3.2,0
	c-1.1,2.8-2.2,5.4-3.6,8.9c13.6-2.3,25.5-8.1,39-8.2c-1.2,3.3-2.3,6.1-3.4,9c0.2,0.4,0.5,0.7,0.7,1.1c6.2-2.3,12.4-4.6,19-7
	c0.4,3.3,0.7,5.8,1.1,8.9c7-3,13.6-5.9,21-9.1c0,4.5,0,8.3,0,12.2c7.2-3.1,13.8-6,21.3-9.2c-1,5.9-1.8,10.5-2.5,15
	c0.3,0.2,0.6,0.4,0.9,0.7c5-3,9.9-6,15.2-9.3c0.8,5,1.6,9.7,2.5,15.2c4.9-2.3,9-4.2,13.5-6.3c2.2,6.2,4.3,12.2,6.6,18.5
	c7.6-2.5,10.2-11.1,18.3-14.2c0.6,9.1,1.3,17.7,1.9,26.8c6.4-2.1,10.9-6.3,14.6-12.2c2,3.9,3.8,7.4,5.7,11c0.5,0,0.9,0.1,1.4,0.1
	c1.1-2.6,2.4-5.2,3.4-7.9c3.7-9.6,7.3-19.3,11.1-29c0.5-1.4,1.4-2.6,2.2-4.1c2,5.6,3.8,10.9,5.6,16.2c0.5,0,1-0.1,1.5-0.1
	c5.3-11.3,10.6-22.6,16.4-34.8c1.4,3.5,2.5,6.1,3.6,8.8c0.4,0.1,0.9,0.1,1.3,0.2c1.8-3.6,3.8-7.2,5.2-11c3.1-8,7.2-15.2,14-21.9
	c0.7,4,1.3,7.3,2.1,11.7c7.1-9.2,13.8-17.8,21-27.1c0.6,2.6,1,4.4,1.6,7.1c6.4-7.4,9.2-16.5,14.5-24.6c0.8,3.1,1.4,5.7,2.1,8.3
	c0.5,0.1,1,0.3,1.5,0.4c6.5-7.9,11.8-16.6,18.3-25.3c0.6,1.7,1.1,2.9,1.7,4.6c5.2-5.4,10.1-10.6,15.7-16.5c1.1,3.1,2,5.5,3.2,8.8
	c2.7-2.7,5.1-4.9,7.2-7.4c6.8-7.9,14.8-14.5,24-19.4c1.1-0.6,2.3-1.1,3.4-1.7c0.3-0.1,0.6-0.1,1.2-0.1c0.5,1.5,1.1,3.1,1.9,5.3
	c6.2-7.2,12.6-13.8,18-21.1c7.9-10.6,17.9-18.2,29.4-24.6c30.9-17.2,63-31.4,97.6-39.2c10.9-2.5,21.9-4.7,32.9-5.8
	c37.2-3.7,70.2,17.4,83,52.6c0.3,0.7,0.6,1.4,1.7,2.3c0.5-2.5,1.1-4.9,1.6-7.4c0.4-0.1,0.8-0.2,1.2-0.4c2.4,5.4,5.1,10.7,7,16.2
	c2,5.7,3.3,11.6,5,17.8c1.2-1.7,2.3-3.2,3.8-5.3c3.1,15.3,3,30.1,2.2,46.1c2.6-3.5,4.5-6.1,6.4-8.6c0.4,0.2,0.9,0.3,1.3,0.5
	c-2.7,12.4-7.3,24.2-11.8,37.3c2.4-2,3.9-3.3,6.2-5.3c0.8,11.4-2.3,21.1-7.2,30.7c1.6-0.7,3.3-1.5,5.9-2.7
	c-1.3,6.6-4.6,11.7-6.9,17.1c-2.4,5.5-5,11-8,17.3c3.9-1.4,7-2.5,10.7-3.9c-1.2,9.5-4.7,17.6-9.4,26.4c3-0.4,5.2-0.7,8.3-1.1
	c-4.3,8.1-8.3,15.8-12.7,24.2c3.4-1.4,6.2-2.6,9-3.8c0.3,0.2,0.6,0.4,1,0.6c-0.7,1.7-1.1,3.7-2.1,5.2c-6,8-12.2,15.8-18.6,23.9
	c2.7-0.2,5.7-0.5,10-0.9c-4.1,5.1-7.4,9.6-11.1,13.8c-3.7,4.1-7.9,7.8-11.9,11.6c0.1,0.3,0.2,0.6,0.4,0.9c3.3,0,6.7,0,11,0
	c-8,10.6-17.3,18-27.8,25c1.6,0.1,3.2,0.3,4.7,0.3c1.7,0.1,3.5,0,6.5,0c-1.8,2.7-2.9,4.9-4.6,6.6c-5.7,6-11.6,11.8-17.5,17.6
	c-1.1,1.1-2.6,1.8-3.9,2.6c0.3,0.5,0.7,0.9,1,1.4c5.2-1.2,10.4-2.4,16.7-3.8c-9.2,14.6-22,23.7-35.8,31.9c3.7,0,7.3,0,11,0
	c0.2,0.4,0.3,0.7,0.5,1.1c-9.1,6.5-18.2,13-28.2,20.1c4.5,0.3,8.1,0.6,11.7,0.9c0.2,0.3,0.4,0.6,0.6,0.9
	c-8.3,6.2-16.6,12.3-25.3,18.8c4.6,0,8.8,0,13,0c0.2,0.3,0.3,0.5,0.5,0.8c-7.7,5.2-14.6,11.3-20.6,19.9c3.7-0.5,6.4-0.8,9.6-1.2
	c-0.8,7.1-7.8,8.4-11.9,12.9c4,4.1,7.8,8.1,11.9,12.3c-4.6,2.1-4.3,5.8-3.2,9.4c3.1,10.2,6.4,20.3,9.7,30.5c0.6,1.8,1.2,3.5,1.9,5.2
	c-0.3,0.3-0.6,0.6-0.8,0.8c-4.2-2.8-8.5-5.7-13.6-9.2c3,11.4,5.8,22,8.5,32.6c-0.5,0.4-1,0.7-1.5,1.1c-2.9-1.6-5.9-3.2-9.4-5.1
	c0,7.3,0,14.5,0,21.8c-0.4,0.2-0.8,0.3-1.2,0.5c-3-2.4-6.1-4.8-9.9-7.8c0,8.6,0,16.6,0,24.5c-0.3,0.1-0.7,0.1-1,0.2
	c-1.8-2.7-3.7-5.3-5.6-8c-2.9,1.3-2.6,3.7-2.7,5.8c-0.3,6.4-0.3,12.7-0.5,19.1c0,1.5-0.2,3-0.3,5.1c-6.8-3.6-10.5-9.2-14-15.8
	c-4.7,9.5-6.2,19.1-7.7,28.8c-0.4,0.2-0.8,0.4-1.2,0.6c-3.4-3.6-6.7-7.3-10.3-11.1c-1.2,8.2-2.4,16.3-3.7,25.1c-5.9-3-6.5-9-11-12.6
	c-0.9,11.3-1.7,22.6-2.6,33.8c-0.3,0.3-0.7,0.5-1,0.8c-1.8-1.7-3.8-3.3-5.5-5.1c-1.8-1.9-3.4-4.1-5.6-6.9
	c-1.3,14.4,1.2,27.4,5.1,41.3c-3.4-2.5-5.9-4.3-9.2-6.8c0,7.6,0,14.3,0,21c-0.4,0.2-0.8,0.5-1.3,0.7c-1.7-1.4-3.7-2.7-5.2-4.4
	c-22.2-25.7-50.4-40.9-83.1-48.6c-9-2.1-18.1-3.5-27.2-5.2c-0.6-0.1-1.5-0.1-1.8-0.4c-4.9-5-11.3-3.6-17.1-3.6
	c-37.5-0.2-74.9-0.1-112.4-0.1c-18,0-36-0.5-54-0.2c-4.8,0.1-10.3-0.6-14.5,3.5c-0.7,0.7-2.1,0.7-3.2,0.8
	c-14.5,1.8-29.1,3.6-43.6,5.3c-2.4,0.3-4.9-0.2-7.3-0.3c-0.3,0-0.7-0.1-0.9,0c-10.5,4.8-22.1,4.2-33.1,6.3
	c-12.5,2.5-25.2,3.9-37.7,6.3c-5.2,1-8.4-2.4-12.3-4.1c-0.6-0.2-0.5-2.9-0.1-4.4c1.3-5.2,2.9-10.3,4.4-15.5
	c-0.3-0.2-0.6-0.4-0.9-0.7c-5.3,5.1-10.5,10.3-15.8,15.4c-2.4-4.9-2.3-10.5,1.1-31.3c-6.1,2.3-9.4,7.3-13,12.1
	c4.9-23.6,16.9-44,29.2-64.2c-0.2-0.3-0.5-0.5-0.7-0.8c-5.6,4.2-11.3,8.3-16.8,12.7c-5.4,4.4-10.6,9.1-16.5,14.3
	c-0.3-17.8,0.3-34.7,7.7-51.8c-24.4,21-37.6,47.2-44.9,77c-6.2-20.3-8-41-8.1-62.1c-4.8,18.4-7.2,37.2-8.9,56.2
	c-7.4-12.8-9.2-27.1-12.5-41.2c-0.6,11.7-1.2,23.4-1.7,35.1c-5.3-7.5-7.8-16.2-11.5-24.4c-1.1,17.3,0.2,34.4,2.7,51.5
	c-5.7-8.8-8.8-18.6-11.3-28.7c-2.4-10-4.1-20.1-6.1-30c-1.8,28.6,1.4,56.9,9.6,84.7c-0.5,0.3-1,0.6-1.5,0.9
	c-3.3-3.6-6.6-7.1-9.8-10.7c-0.2,0.1-0.3,0.1-0.5,0.2c1.4,3.9,2.8,7.7,4.7,12.8c-5.4,0-9.8,0.3-14.2-0.1c-1.5-0.1-3.1-1.7-4.1-3
	c-3.4-4.2-6.5-8.5-10.5-13.8c1.9,6.2,3.4,11.3,5.3,17.5c-58.3,1-115.9-0.1-174.2-1.8c1.6-5.2,2.9-9.9,4.3-14.6
	c-0.2-0.1-0.4-0.2-0.5-0.3c-2.1,3-4.2,5.9-6.2,8.9c-2.8,4.1-6.2,6.6-11.6,5.6c-2.7-0.5-5.7-0.1-9.4-0.1c1.5-4.3,2.7-7.7,4.1-11.7
	c-3.8,3.7-7.2,7-10.6,10.3c-0.4-0.2-0.8-0.5-1.2-0.7c8.1-27.6,11.3-55.8,9.3-84.5c-2.7,20.5-6.9,40.5-17.2,58.8
	c0.9-8.5,2.2-17,2.6-25.5c0.5-8.6,0.1-17.3,0.1-26.4c-3.5,8.6-6.8,16.9-10.2,25.2c-0.4-0.1-0.8-0.1-1.2-0.2c-0.6-12-1.2-24-1.8-35.9
	c-3.2,14.2-5.1,28.7-12.4,41.7c-1.9-18.9-4.2-37.7-8.9-56.1c0,21-1.9,41.7-8,62c-7.3-29.8-20.5-56.1-43.4-75.7
	c1.7,8.2,4,16.9,5.2,25.8c1.1,7.8,0.9,15.8,0.8,24.1c-10.8-9.4-21.5-18.6-33.7-26.1c12.1,20.3,24,40.6,28.7,64.3
	c-1.8-2.2-3.3-4.6-5.3-6.6c-2-2-4.3-3.6-7-5.1c1.8,10.5,3.4,20.9,1.2,32.6c-5.7-6.2-10.8-11.6-15.8-17.1c-0.4,0.3-0.8,0.6-1.2,0.9
	c1.6,5.7,3.2,11.4,4.8,17c-5.1,1.9-9.8,3.6-14.6,5.2c-0.8,0.3-1.9,0.1-2.8-0.1c-19.1-2.6-38.2-5.1-57.3-7.8
	c-2.6-0.4-5.1-1.7-7.7-2.1c-1.7-0.3-3.6,0.7-5.4,0.5c-9.7-0.8-19.3-1.9-29-2.8c-2.4-0.2-4.8-0.4-7.1-0.5c-9.4-0.4-18.9-0.4-27.3-6.2
	c1.1,1.3,2.3,2.6,4.1,4.7c-2.7,0-4.5,0-6.3,0c-24.5-0.5-49.1-1.6-73.6-1.2c-22.3,0.4-44.5,2.6-66.7,4.2c-11.6,0.8-23.2,2.1-34.7,3.4
	c-22.5,2.5-44.2,8-65.1,16.5c-8.5,3.5-16.4,8.5-24.3,13.2c-9.9,5.9-18.7,13.2-26.5,21.7c-0.4,0.4-1,0.7-1.9,1.3c0-2.9,0-5.3,0-8
	c-2.9,2-5.5,3.9-8.1,5.7c-0.4-0.2-0.8-0.4-1.1-0.6c0-6.7,0-13.4,0-20.2c-0.4-0.2-0.7-0.4-1.1-0.6c-2.4,1.8-4.9,3.7-8.3,6.3
	c3.6-13.9,6.3-26.8,5-40.5c-4.6,3.2-5.9,9.4-12,11c-0.9-11.7-1.9-23-2.8-35.1c-4.5,4.2-4.9,10.4-10.9,13.3c-1.3-8.7-2.5-16.8-3.8-25
	c-3.5,3.9-6.9,7.5-10.6,11.5c-2.7-10.6-5-20-7.4-29.5c-0.4,0-0.8,0-1.2,0c-3.2,6.1-6.9,11.7-13.6,15.6c-0.2-1.5-0.5-2.6-0.6-3.7
	c-0.2-6.7-0.2-13.4-0.5-20.1c-0.1-2.1-0.8-4.2-1.2-6.2C243.6,670.2,243.1,670.2,242.6,670.2z M1668.1,437.2c0-0.2,0.1-0.5,0.1-0.7
	c-10.6-2.6-21.1-5.2-31.7-7.8c3.8-1.2,7.5-1.6,11.1-2c14.4-1.9,28-5.9,40.4-13.7c1.7-1,2.9-2.8,4.3-4.2c-0.2-0.4-0.4-0.9-0.6-1.3
	c-26.3-2.1-52.1-6.5-77.2-14.5c22.3-1.1,44.6-0.6,66.7-3.3c0-0.4,0-0.9,0.1-1.3c-7.6-1.9-15.2-3.9-22.8-5.8
	c13.4-0.5,26.7-0.7,39.8-3.8c-17.3-7.9-36.9-7.4-54.1-15.5c0.9-0.3,1.7-0.3,2.5-0.2c25.2,0.8,50.3,1.8,75.5,2.4
	c5.5,0.1,11.1-1.2,16.6-1.8c0-0.4-0.1-0.8-0.1-1.2c-9.5-1.6-19-3-28.5-4.8c-9.6-1.9-19.1-4.2-28-8.6c25.2-2.6,50.6-2.4,75.5-6.6
	c-9.9-2.5-19.8-5-29.7-7.4c0-0.4,0.1-0.7,0.1-1.1c8.2-0.6,16.5-1,24.6-1.8c12.7-1.3,25.3-2.8,38-4.3c1.8-0.2,3.5-1.1,5.2-1.7
	c-0.1-0.4-0.2-0.8-0.3-1.1c-23.9-3.5-48-6-70.7-15.9c13.9-2.2,27.3-4.1,40.6-6.4c10.1-1.8,19.8-4.9,28.2-11.1
	c2.1-1.5,3.9-3.4,5.8-5.1c-0.2-0.5-0.4-0.9-0.5-1.4c-17.9,0-35.7,0-53.6,0c0-0.3,0-0.7,0-1c19.5-3.1,38.8-6.7,54.6-19.8
	c-0.1-0.4-0.1-0.7-0.2-1.1c-12.9,0-25.8,0-38.8,0c-0.1-0.4-0.1-0.7-0.2-1.1c13.7-3.3,27.1-7.6,38.9-15.5c-17.3,0-34.5,0-51.8,0
	c11.2-4,22.4-7.2,33.5-10.9c11.1-3.8,21.9-8.2,31.9-14.5c-12.1,1.4-24.2,2.7-36.3,4.1c15.7-6.2,30.6-13.5,43.6-24.4
	c-8.3,1.1-16.4,2.8-24.5,3.9c-8,1.1-16.1,1.7-24.2,2.4c-0.1-0.4-0.2-0.8-0.3-1.2c19.6-12.8,39.3-25.4,49.8-48.3
	c-2.1,0-3.6-0.2-4.9,0c-12.6,1.8-25.3,3.2-37.8,5.5c-15.3,2.8-30.6,6.2-45,12.4c-4.7,2-9.1,4.8-13.7,7.2c0.1,0.2,0.3,0.4,0.4,0.5
	c18.3,0,36.5,0,54.8,0c-1.1,0.9-2.2,1.4-3.4,1.7c-11.3,3.2-22.7,6.4-34,9.6c-10.8,3.1-21.1,7.1-30.5,13.3c-0.9,0.6-1.7,1.5-2.5,2.2
	c0.1,0.3,0.3,0.7,0.4,1c17.5,0,35.1,0,52.6,0c-0.8,1.1-1.6,1.4-2.5,1.6c-9.6,1.6-19.2,2.8-28.7,5c-13.8,3.2-27.4,6.9-41.1,10.7
	c-3.9,1.1-7.6,3-10.5,7.2c2.4,0,3.9,0,5.5,0c8.9,0.1,17.8,0.1,26.8,0.3c2.5,0,5.1,0,7,3.4c-18.6,4.4-36.8,8.8-54.9,13.1
	c0,0.3,0.1,0.6,0.1,0.9c17.6,1.6,35.3,3.2,52.9,4.7c0,0.5,0.1,0.9,0.1,1.4c-3.4,0.7-6.8,1.9-10.3,2.1c-22.9,1.9-44.9,7.3-66.4,15.3
	c-0.9,0.3-1.6,0.9-2.4,1.4c22.7,1.5,45.1,3,67.5,4.5c0,0.4,0,0.8,0,1.2c-0.6,0.1-1.2,0.3-1.8,0.4c-23,3.6-46,6.9-68.9,10.7
	c-15.2,2.5-30.3,5.9-44.5,12.4c-1.2,0.5-2.2,1.2-3.3,1.9c0.1,0.3,0.2,0.5,0.3,0.8c16.8,0,33.5,0,50.3,0c-1.7,1.2-3.5,1.7-5.3,2.1
	c-15.4,3.6-30.7,7.1-46,10.8c-2.4,0.6-4.6,1.7-6.9,2.6c0.1,0.4,0.3,0.8,0.4,1.2c2.4,0,4.7,0,7.1,0c27.1,0.2,54.2,0.4,81.3,0.8
	c2.6,0,5.1,0.7,7.6,1.1c-0.9,0.8-1.6,0.9-2.4,1c-24.3,2.1-48.4,5.7-71.9,12.5c-13.4,3.8-26.6,8.8-39.7,13.4
	c-3.3,1.2-6.2,3.4-9.2,5.1c0.1,0.2,0.3,0.3,0.4,0.5c12-0.9,23.9-1.7,35.9-2.6c0.1,0.4,0.1,0.8,0.2,1.2c-1.4,0.5-2.9,1-4.3,1.4
	c-7.8,2.1-15.7,4.1-23.5,6.4c-2.2,0.6-4.3,2-6.4,3c0.2,0.3,0.3,0.5,0.5,0.8c17.9,0,35.7,0,53.6,0c-0.9,0.9-1.9,1.2-2.9,1.4
	c-12.4,2.8-24.9,5.4-37.2,8.6c-13.3,3.5-26,8.5-37.1,17.1c-2.3,1.8-4.4,3.9-6.6,5.8c0.2,0.2,0.3,0.5,0.5,0.7
	c17.9-2.9,35.8-5.7,53.7-8.6c0.1,0.3,0.2,0.7,0.3,1c-29,11-55.9,26-81.7,44.6c6.1-0.9,11.1-1.6,16.7-2.4c-4.3,4.2-8.1,7.9-11.8,11.6
	c0.3,0.5,0.5,0.9,0.8,1.4c17.3-4,34.7-8,52-12c-24.5,12-45.8,27.9-63.5,48.6c6.8-4.3,13.7-8.3,22-9.3c-6.8,7.2-14.2,14-19,23.7
	c4.9-2.7,9.1-4.9,13.2-7.2c0.2,0.3,0.5,0.7,0.7,1c-14.9,16.2-24.6,35-28.2,57.1c4.5-2.4,8.5-4.5,13.1-7c0,7.4,0,14.1,0,21.9
	c2-4.1,3.6-7.2,5.1-10.3c0.3,0.1,0.6,0.3,0.9,0.4c0.4,6.8,0.9,13.6,1.3,20.5c0.4,0.1,0.8,0.1,1.2,0.2c2.8-10.9,6.6-21.3,12.7-31.3
	c0.5,11.3,0.6,21.8,1.6,32.2c1,10.5,3.3,20.7,7.4,30.3c1-11.4,1.7-22.6,3.1-33.8c1.7-13.3,7.1-29,10.5-32.2c0,21.6,0,42.8,0,65.2
	c1.6-2.8,2.6-4.6,4.1-7.3c0.9,5.2,1.6,9.2,2.3,13.2c0.3,0,0.5,0,0.8-0.1c0.9-3.7,1.7-7.4,2.6-11.1c0.2,0,0.5,0,0.7,0.1
	c2.9,11,5.9,22,8.8,33c0.3,0,0.6,0,0.8,0c1.9-11.9,3.9-23.9,6-36.9c2.6,18.5,2.4,36.1,5.9,53.3c0.5,0,1-0.1,1.5-0.1
	c0-8.5,0-17,0-25.5c4.3,20.8,20.1,50.4,31.8,57.8c-7.7-14.4-14.9-28.5-18-44.3c8.2,18.6,25.2,28.1,40.2,39.7
	c-0.8-2.5-1.7-4.8-2.9-6.9c-4.4-7.6-8.7-15.2-13.3-22.6c-5.1-8.1-7.3-16.9-7.8-26.2c-0.1-1.5,0.2-2.9,0.3-4.8
	c9.3,4,18,7.7,26.6,11.4c-3.5-10.7-14-16.3-17.5-27.9c2.5,1.2,4,2,5.6,2.7c10,5,19.9,10.1,29.9,14.9c3.1,1.5,6.5,2.2,9.8,3.3
	c0.2-0.4,0.3-0.8,0.5-1.2c-1.1-1.1-2.1-2.3-3.2-3.4c-14.6-14.8-31.3-27.1-47.7-39.8c-6.2-4.8-12.3-9.6-18.1-14.8
	c-3.1-2.8-5.4-6.4-8.1-9.6c0.3-0.3,0.6-0.6,1-0.9c11.9,9.1,24.7,16.7,38.6,22.4c13.7,5.6,27.7,10.2,42.7,10.7
	c-17.9-8.6-36.1-16.4-52.4-27.7c0.1-0.5,0.2-0.9,0.3-1.4c11,0,22.1,0,33.1,0c0-0.4,0.1-0.8,0.1-1.2c-1.3-0.5-2.6-0.9-3.8-1.4
	c-9.5-4-19.1-8-28.5-12.2c-2.5-1.1-5-2.6-5.8-6.3c18.1,0.5,35.6,0.2,53-2.7c-22.4-3.8-43.6-11.4-64.6-19.8c1.5-0.6,3-0.9,4.5-0.8
	c9.7,0.1,19.4,0.4,29.2,0.3c11.9,0,23.9,0,35.8-0.6c12.2-0.7,23.9-3.6,34.9-9.1c2-1,4.5-1.7,4.7-4.7c-13.9-1.3-27.7-2.5-41.4-3.8
	c0-0.4,0-0.7,0-1.1c9.8-1.3,19.3-3.5,28-8.1c0-0.4,0-0.8-0.1-1.3c-13.3-0.7-26.5-1.4-39.8-2.2c14-3.9,28-6.7,41.8-10.3
	c13.8-3.6,27.1-8.8,39.5-16.3c-17,5.4-34.2,8.4-52.1,7.6c-17.7-0.7-35.4-0.3-52.5-6.3c21-1.5,42.1-1.5,61.4-11.5
	c-16.3-2-32.5-3-48.4-7.3C1645,439.9,1656.6,438.5,1668.1,437.2z M447.5,638.1c0.3,0,0.6-0.1,1-0.1c3-11.1,5.9-22.2,9.1-34.3
	c1.1,4.8,2,8.6,2.9,12.5c0.3,0,0.6,0,0.9,0c0.7-4,1.3-8,2-12.1c0.3,0,0.6,0,0.8,0c0.9,1.8,1.8,3.5,2.7,5.3c0.2,0,0.5-0.1,0.7-0.1
	c0-21.5,0-42.9,0-64.4c0.4,0,0.7-0.1,1.1-0.1c8.9,21.2,12.5,43.5,12.2,66.6c8.3-20,9.7-40.9,8.8-62.2c0.6-0.1,1.1-0.2,1.7-0.3
	c4.2,10.3,8.3,20.7,12.8,32c0.4-7.8,0.8-14.9,1.2-21.9c0.3-0.1,0.6-0.2,0.9-0.3c1.6,3.2,3.2,6.5,4.8,9.7c0.2-0.1,0.5-0.1,0.7-0.2
	c0-6.7,0-13.4,0-20.7c4.5,2.4,8.5,4.5,12.8,6.8c-3.9-22.4-13.6-41.5-29-57.8c0.2-0.3,0.4-0.5,0.6-0.8c4.5,2.5,9,5,14.1,7.8
	c-4.9-9.7-12.3-16.5-19.1-23.8c8,1,14.7,4.8,21.4,8.7c-17.6-20.5-38.8-36.1-62.9-48.1c17.3,4,34.6,8,51.8,12c0.3-0.5,0.6-1,0.8-1.4
	c-3.7-3.7-7.4-7.3-11.7-11.6c5.7,0.8,10.6,1.5,15.4,2.2c-24.9-18.6-51.8-33.5-80.8-44.6c0.1-0.3,0.2-0.6,0.3-0.9
	c17.9,2.9,35.9,5.7,54.3,8.7c-0.5-1-0.7-1.5-1-1.8c-0.9-0.9-1.8-1.8-2.8-2.6c-8.3-7.2-17.9-12.5-28.3-15.5
	c-15.3-4.4-30.8-7.9-46.2-11.8c-1.7-0.4-3.5-0.8-5.2-1.1c0.1-0.3,0.1-0.6,0.2-0.8c17.7,0,35.5,0,53.2,0c0.1-0.4,0.2-0.7,0.2-1.1
	c-10.7-5.5-22.9-6.3-34-10.5c0-0.4,0.1-0.8,0.1-1.2c12,0.9,24,1.7,36,2.6c0.1-0.3,0.3-0.7,0.4-1c-5.8-2.7-11.5-5.9-17.5-8.1
	c-26.1-9.7-53-16.1-80.5-19.7c-8.4-1.1-16.8-2-25.2-3c0-0.4,0-0.9,0-1.3c32-1.9,64.1-0.8,96.3-1.8c-2.3-1.5-4.6-2.6-7.1-3.2
	c-11.1-2.7-22.3-5.3-33.5-7.9c-5.7-1.3-11.5-2.7-17.2-4c0-0.4,0.1-0.7,0.1-1.1c16.6,0,33.2,0,49.9,0c-18.3-9.9-38.2-13.3-58.1-16.7
	c-20-3.4-40-6.4-60.1-9.6c0-0.3,0-0.6-0.1-0.9c22.4-1.5,44.9-3,68-4.5c-1.2-0.7-1.7-1-2.3-1.2c-15-5.5-30.2-10.2-46-12.7
	c-8.5-1.4-17.1-2.2-25.6-3.4c-2-0.3-3.8-1.3-5.7-2c0.1-0.3,0.2-0.6,0.3-0.9c17.6-1.6,35.2-3.2,52.7-4.8c0-0.3,0-0.6-0.1-0.9
	c-18.1-4.3-36.3-8.6-54.4-13c0-0.6,0-1.2,0-1.9c2.3-0.6,4.6-1.5,6.9-1.6c9.1-0.3,18.2-0.2,27.2-0.3c1.3,0,2.7-0.1,4.5-0.2
	c-3.3-4.8-7.9-6.2-12.3-7.7c-19.7-6.6-40-10.5-60.4-13.8c-3.2-0.5-6.3-1.1-9.5-1.6c0-0.5,0.1-1,0.1-1.5c17.5,0,34.9,0,52.4,0
	c0-0.4,0.1-0.7,0.1-1.1c-1.4-1-2.8-2.2-4.3-2.8c-9.5-4.1-18.8-8.6-28.5-12c-11.3-3.9-22.9-6.6-34.4-9.9c-1-0.3-2-0.9-3.7-1.7
	c19.2,0,37.3,0,55.4,0c-31-18.1-65.6-21.9-100.3-25.6c4.6,11.4,11.8,20.5,21.1,28c9,7.3,18.5,13.9,27.9,20.8
	c-8.3-0.1-16.4-0.7-24.4-1.8c-8-1.1-16-2.8-24-4.2c12.9,11,27.7,18.4,43.6,23.8c-0.1,0.3-0.2,0.6-0.3,0.9
	c-12.3-1.4-24.5-2.7-36.8-4.1c21,11.4,43.3,19.1,66.4,24.6c-0.1,0.3-0.2,0.7-0.2,1c-17.5,0-34.9,0-52.4,0
	c12.2,7.5,25.5,12.1,39.2,15.3c-0.1,0.4-0.1,0.8-0.2,1.3c-13,0-25.9,0-38.9,0c15.7,14,35,17.6,54.5,20.7c-0.1,0.4-0.2,0.9-0.2,1.3
	c-17.9,0-35.7,0-53.6,0c-0.1,0.4-0.3,0.7-0.4,1.1c2.1,1.8,4.1,3.8,6.4,5.4c8.2,5.9,17.6,8.9,27.4,10.7c13.4,2.4,26.9,4.4,40.8,6.6
	c-22.7,9.7-46.8,12.4-70.8,16.7c22.2,5.3,45,6.3,67.6,8.1c0,0.4,0,0.8,0,1.2c-9.8,2.5-19.6,4.9-29.4,7.4c24.9,4.2,50.2,3.9,75.3,6.6
	c-18,7.9-37.4,10.4-56.5,13.8c15.5,4,31.3,3,46.9,2.6c15.8-0.4,31.6-1.5,47.5-2.3c-17.1,8.3-36.8,7.7-54,15.7
	c13.1,2.8,26.4,3.2,39.8,3.7c-7.7,2-15.3,3.9-23,5.9c0.1,0.5,0.1,1.1,0.2,1.6c11.1,0.6,22.2,1.2,33.3,1.6
	c11.1,0.4,22.3,0.6,33.4,0.8c-25.1,8.3-50.9,12.7-77.4,15.6c1.3,2.1,2.7,3.9,4.5,5c14.6,9,30.8,12.7,47.6,14.2
	c1.1,0.1,2.2,0.3,3.3,0.5c0,0.2,0,0.5,0,0.7c-10.4,2.5-20.8,5.1-31.2,7.6c0,0.3,0.1,0.5,0.1,0.8c11.5,1.3,22.9,2.7,34.4,4
	c0,0.5,0,0.9,0.1,1.4c-16.2,1.9-32.5,3.9-48.7,5.8c19.5,10,40.6,10.3,61.6,12c-35,6.9-70,9.9-104.9-1.7
	c12.6,7.3,25.8,12.6,39.6,16.2c13.8,3.6,27.9,6.5,41.8,9.7c0,0.2,0,0.5,0,0.7c-13.3,0.7-26.5,1.4-39.8,2.1c0,0.4,0,0.8-0.1,1.2
	c8.7,4.8,18.2,6.7,27.9,8.2c0,0.3,0,0.7,0,1c-13.8,1.3-27.6,2.5-41.4,3.8c-0.1,0.3-0.2,0.7-0.3,1c1.4,1.1,2.7,2.5,4.3,3.3
	c4,1.9,8.1,3.7,12.4,5c18.1,5.8,36.7,5.8,55.4,5.3c10.8-0.3,21.7-0.4,32.5-0.5c1.6,0,3.3,0.2,4.9,0.4c0,0.3,0,0.7,0.1,1
	c-21.1,7.8-42.2,15.6-64.7,19.3c17.5,3,35.2,3.1,53.2,3.6c-1.9,2.4-3.8,4.5-6.2,5.6c-9.3,4.2-18.7,8.1-28.1,12.1
	c-1.2,0.5-2.4,1-3.6,1.4c0.1,0.5,0.1,0.9,0.2,1.4c11,0,21.9,0,32.9,0c0,0.4,0,0.8,0.1,1.2c-16.4,11.2-34.6,19-52.3,27.7
	c30.2-3.2,57-15,81.5-32.9c-1.7,4.8-5,8.4-8.7,11.5c-7.1,5.9-14.6,11.4-21.7,17.3c-14.5,12-28.8,24.2-43.1,36.3
	c-1.1,1-2.1,2.2-3.1,3.3c0.2,0.3,0.5,0.7,0.7,1c15.9-4.4,29.6-13.7,45.2-20.7c-3.4,11.4-14.1,16.9-18.3,27.9
	c9.7-4.1,18.5-7.9,27.7-11.9c0.2,11.1-1.7,20.8-7,29.7c-4.2,7-8.4,13.9-12.4,21c-1.8,3.2-3.3,6.6-5,10
	c15.3-11.4,32.3-20.8,40.5-39.3c-3.1,16-10.6,30.1-17.6,44.4c16.3-17.1,27.4-37,32.2-60.3c0,8.8,0,17.7,0,26.5c0.3,0,0.6,0,0.9,0.1
	c3.2-17,3.1-34.5,5.7-52.3C443.6,614,445.6,626,447.5,638.1z M243.2,555c4.4,13,14.6,21.1,20.6,31.9c-0.2,0.4-0.4,0.8-0.6,1.1
	c-5.6-2.2-11.3-4.3-17.3-6.7c4.3,5.6,8.6,10.9,13.4,17.2c-3.5,0.3-5.9,0.4-8.6,0.6c0.2,0.9,0.3,1.9,0.5,3.2
	c-2.9-0.1-5.5-0.2-8.7-0.4c9.3,14.9,22.1,24.3,38,30c-0.1,0.3-0.2,0.6-0.4,0.9c-9.2,0-18.4,0-28.2,0c9.6,12.6,20.8,22,34.4,28.9
	c-0.2,0.4-0.3,0.7-0.5,1.1c-6.7,0-13.4,0-20.1,0c-0.2,0.4-0.4,0.9-0.5,1.3c7,4.5,13.9,9,21.4,13.9c-2.1,0.2-3.7,0.4-5.9,0.6
	c16.8,14.1,36.5,21.6,56.6,28.8c-13.8-16.9-22.5-35.9-24.1-58c4,2.9,8,5.8,12,8.7c0.3-0.4,0.6-0.7,1-1.1
	c-11.1-12.2-22.1-24.3-33.2-36.5c0.2-0.1,0.3-0.3,0.5-0.4c6.4,3.7,12.8,7.3,19.3,11c0.2-0.3,0.4-0.6,0.5-0.9
	c-10.2-9.6-20.5-19.2-30.7-28.8c0.2-0.3,0.4-0.6,0.6-0.9c11.9,4.6,23.7,9.2,35.6,13.8c-6-11.7-19-14.4-28.1-23
	c9.1,0.5,17.4,0.9,25.6,1.3c0.1-0.3,0.1-0.6,0.2-1c-16.2-4.8-29.9-14.1-44.2-24.2c9.9,0,18.8,0,27.7,0c0-0.3,0.1-0.6,0.1-0.9
	c-7.6-3.8-15.2-7.6-22.9-11.4c0.2-0.5,0.3-1,0.5-1.5c5.2,0,10.5,0,15.7,0c-11.1-8-23.5-13.6-32.3-25.5c10.1-1.2,19.3-0.5,28-3.1
	c-13.6-2.2-25.7-8-38.5-14.9c3.9-0.6,6.6-0.9,9.4-1.3c-14.9-2.8-29.7-5.4-42.3-15c0.9,2.4,2.1,4.3,3.8,5.7
	c9.2,7.3,18.6,14.5,27.8,21.8c1,0.8,2,1.7,3.8,3.3c-5.2,0-9.3,0-13.4,0c4.1,5.5,8.1,10.7,12.1,16c-0.3,0.3-0.6,0.7-0.8,1
	c-2.5-0.2-5-0.5-8.2-0.8c4.2,5,7.9,9.4,11.6,13.9c-0.2,0.3-0.4,0.7-0.5,1C250.9,555.6,247.6,555.4,243.2,555z M1727.9,567.8
	c-14.2,10-28,19.3-44.2,24.2c0.1,0.3,0.2,0.6,0.2,0.9c8.4-0.4,16.7-0.8,25.1-1.2c-1.1,1.7-2.3,2.6-3.6,3.4
	c-5.9,3.8-11.8,7.5-17.8,11.2c-3.1,2-5.2,4.7-7.1,8.7c12.9-5,24.8-9.7,36.7-14.3c0.2,0.3,0.3,0.6,0.5,0.9
	c-10,9.4-20.1,18.9-30.1,28.3c0.2,0.3,0.5,0.6,0.7,1c6.2-3.5,12.4-7.1,18.6-10.6c0.1,0.2,0.2,0.3,0.3,0.5
	c-11.1,12.2-22.2,24.3-33.3,36.5c0.3,0.4,0.6,0.7,1,1.1c4-2.9,8-5.8,12.1-8.7c0.4,0.2,0.8,0.4,1.1,0.6c-2.8,10.2-4.7,20.8-8.8,30.5
	c-4.1,9.5-10.4,18.1-15.7,27c19.5-7.4,39.1-14.9,55.9-29c-2.2-0.2-3.8-0.4-5.9-0.6c7.5-4.8,14.4-9.3,21.4-13.8
	c-0.2-0.5-0.3-1-0.5-1.6c-6.8,0-13.6,0-20.4,0c-0.1-0.3-0.1-0.7-0.2-1c13.6-6.8,24.8-16.3,34.5-29c-10.1,0-19.3,0-28.6,0
	c15.9-6.3,28.6-15.9,37.9-30.9c-3.4,0.2-6,0.3-8.8,0.5c0.3-1.4,0.4-2.3,0.6-3.1c-2.6-0.2-5-0.4-8.5-0.7c4.9-6.2,9.1-11.6,13.4-17.1
	c-6.1,2.4-11.8,4.5-17.4,6.7c-0.2-0.4-0.5-0.8-0.7-1.2c0.9-1.3,1.7-2.6,2.6-3.8c4.7-6.4,9.6-12.8,14.3-19.2c1.9-2.5,3.6-5.2,3-8.7
	c-3.5,0.2-6.8,0.4-10.1,0.6c-0.1-0.4-0.1-0.7-0.2-1.1c3.7-4.4,7.4-8.9,11.4-13.7c-3.3,0.3-5.7,0.6-8.2,0.8c-0.3-0.3-0.6-0.7-0.8-1
	c4-5.3,8-10.7,12.3-16.3c-4.3,0-8.4,0-13.6,0c2.2-1.7,3.5-2.7,4.7-3.6c9-7.1,18.1-14.1,27.1-21.2c1.8-1.4,3.9-2.8,3.3-6.3
	c-12.4,10.4-27.1,13-42,15.8c2.9,0.4,5.7,0.8,9.4,1.4c-12.5,7-24.7,12.4-38.3,14.7c0.1,0.4,0.2,0.8,0.3,1.2
	c8.8,0.7,17.6,1.4,27.7,2.2c-2.7,3-4.5,5.7-6.9,7.5c-7.5,5.4-15.3,10.3-23,15.5c-0.9,0.6-1.8,1.3-2.7,1.9c0.1,0.3,0.2,0.7,0.3,1
	c5.3,0,10.6,0,15.8,0c0.1,0.4,0.2,0.7,0.2,1.1c-7.7,3.8-15.4,7.6-23.1,11.4c0.1,0.3,0.1,0.6,0.2,0.9
	C1709.1,567.8,1718,567.8,1727.9,567.8z"/>
<path d="M580.4,747c32.7,0.8,65.3,2.2,97.8,6c25.3,3,50.5,6.6,75.8,9.8c2,0.2,4.4-0.5,6.1-1.6c2.8-1.8,5.4-3,8.9-2.6
	c49.7,4.4,99.5,7.1,149.4,7.9c52.9,0.8,105.8,2.1,158.7,1.8c34.4-0.2,68.8-2.7,103.1-4.4c14.8-0.8,29.5-2.3,44.3-3.6
	c3.6-0.3,6.7,0.3,9.3,2.6c2.5,2.2,5.2,2.4,8.4,1.9c41.3-6,82.5-12.7,124-17.5c61.6-7.2,123.4-6.6,185.2-2.5
	c24.6,1.6,48.8,6.1,71.5,16.2c41.6,18.4,66.9,50.5,78.6,94.1c4.3,16,4.4,32.5,5,48.9c1.2,34.5-0.4,68.8-5.5,103
	c-4.6,30.9-14.7,59.9-30.6,86.9c-17.3,29.4-40.4,53.5-66.9,74.6c-19.3,15.4-40.7,27.1-62.6,38.4c-16.3,8.4-33.3,14.5-50.9,19
	c-9.6,2.5-19.8,2.9-29.8,4.1c-19.4,2.3-38.8,2.3-58.2-0.4c-14.9-2-29-7.1-43.3-11.8c-21.1-6.9-41.5-15.5-61-25.9
	c-20-10.6-39-22.8-57.2-36.3c-22.7-16.9-44-35.3-62.8-56.4c-13.9-15.6-26.8-32-40.3-47.9c-13.9-16.4-26.5-33.8-36.8-52.8
	c-6.5-12-10.7-24.8-14.3-37.9c-2.7-10.1-5.7-20.2-8.2-30.4c-2.6-10.6-3-21.4-2-32.3c0.4-3.8-0.5-7-2.7-10.2
	c-1.9-2.7-2.9-6.3-3.3-9.7c-0.7-6.3-0.7-12.7-1.2-19.1c-0.5-7-4-12.1-10.7-14.5c-14.3-5.1-28.8-9.4-44.1-10
	c-11.4-0.4-22.9-0.5-34.4-0.4c-12.6,0.1-24.6,3.2-36.6,6.7c-9.4,2.7-15.7,8.2-16.5,18.6c-0.2,2.5-0.6,5.1-0.8,7.6
	c-0.4,8-0.8,15.8-5.6,22.8c-1.6,2.3-2.3,5.7-2.2,8.6c1.3,26.6-4.6,51.7-15.4,75.6c-15.2,33.4-33.1,65.4-54.7,95.1
	c-16,22.1-33.8,42.7-53.5,61.6c-22.6,21.8-47.2,41.2-73.8,58.2c-24.6,15.7-50.8,27.8-78.3,37.2c-22,7.5-44.5,11.6-68,11.5
	c-22-0.1-43.7-2.1-64.8-7.9c-14.4-3.9-28.5-9.3-42.3-14.9c-34.1-13.7-63.8-34.2-90.4-59.5c-17.3-16.4-32.2-34.9-44.2-55.5
	c-13-22.5-21.8-46.6-27.7-72c-6.8-29.5-8.6-59.5-10.3-89.6c-0.9-15.3-2.7-30.5-1.3-45.8c2.5-27.2,10.7-52.4,26.5-74.8
	c12.6-17.9,28.8-31.7,48.3-41.8c23.3-12,48.1-18.3,74-21.1c37.9-4,75.8-7.6,113.9-7.6C564.5,747,572.4,747,580.4,747z M835.7,774.3
	c-1.7,1.2-4.2,2-4.8,3.6c-0.4,1.1,1.2,3.9,2.6,4.8c3.9,2.4,8.1,4.4,12.3,6.3c13.9,6.4,26.2,15.1,36.7,26.1
	c9,9.5,16.9,19.9,22.7,31.8c1.1,2.3,2.6,4.4,4.3,6.3c3.7,3.9,8.5,2.9,10.7-2.1c0.4-0.9,0.6-1.8,0.8-2.7c0.9-4.4,3-8,6.3-11
	c4.8-4.4,10.5-7,16.7-8.9c21-6.5,42.5-8.1,64.3-7.1c16.2,0.7,32,3.4,47.2,9.1c8.2,3.1,14.8,8,17.6,16.8c0.7,2.2,2.3,4.2,3.6,6.1
	c3,4.3,4.8,4.7,8.2,0.7c4.1-4.8,7.8-10.1,11-15.5c10.3-17.1,24.7-29.9,41.6-39.9c8.2-4.8,17-8.6,25.4-13.2c1.6-0.9,3.5-3.4,3.4-4.9
	c-0.3-2.9-3.1-3.7-5.9-3.6c-2.1,0.1-4.1,0.5-6.2,0.6c-42.8,1.2-85.7,3.1-128.5,3.5C962.5,781.8,899.3,779.3,835.7,774.3z"/>
<path d="M1247.3,1266.8c15.4,13,30.3,25.9,45.5,38.4c12.4,10.2,26.8,17.2,41.4,23.7c2.2,1,4.7,1.4,7,2.1c0.3-0.4,0.6-0.8,0.9-1.2
	c-2.5-3.6-4.6-7.6-7.7-10.6c-6.4-6.5-13.3-12.3-19.8-18.6c-5.2-5.1-10.3-10.4-15.3-15.8c-1.2-1.3-2-3-2.4-5.2c1.4,0.7,2.7,1.4,4.1,2
	c15.8,7.6,31.5,15.3,47.4,22.7c3.8,1.8,7.9,3.3,13.1,1.8c-16.5-14.1-35.2-24.9-48.5-42c14.7,5.3,29.5,9.8,45.4,11
	c-6.4-3.7-12.9-7.3-19.2-11.1c-6.2-3.8-13.7-6.1-17.4-14.7c17.9,3.2,34.9,4.1,52.3,2.1c-18-5.9-36.2-11.2-50.2-26.6
	c11.5-0.7,21.8-0.8,31.8,3.1c27.1,10.3,55,16,84.2,14.6c4.2-0.2,5.9,1.3,7.6,5.1c4.3,9.9,9.6,19.4,14.2,29.2
	c3.4,7.2,6.5,14.5,9.2,21.9c1,2.6,0.5,5.8,0.2,8.9c-5.6-8.1-10.7-16.4-21.7-19.4c2.4,4.7,4.5,8.8,6.5,12.8c-0.3,0.2-0.6,0.4-0.9,0.6
	c-5.6-5.5-11.6-10.3-19.5-12.6c2.2,3,4.6,5.8,6.5,9c4.1,6.6,8.4,13.2,11.6,20.2c2.8,6.1,3.3,12.9,0.2,20.2
	c-6.2-19.6-19.7-31-38.3-37.8c0.6,1.5,1.1,2.9,1.6,4.2c8.5,19.8,12.5,40.4,12.2,61.9c0,1.9-0.5,3.9-1.4,5.9
	c-2.8-31.9-20.7-55.7-40.5-78.5c-0.5,0.1-1,0.2-1.5,0.4c1.4,12.2,2.5,24.5,4.3,36.7c1.8,12.3,4.3,24.4,6,36.9c-3.3-5-6.6-10-9.9-15
	c-0.2,0.1-0.4,0.2-0.6,0.3c1.2,6.2,2.5,12.4,3.7,18.6c-0.1,0-0.2,0-0.4,0c-4.9-10.8-9.9-21.6-14.8-32.3c-0.6,0.2-1.1,0.4-1.7,0.6
	c1.3,6.1,2.6,12.2,3.8,18.4c2.2,11.9,4.8,23.7,6.1,35.7c0.7,6.3-1.1,12.9-2,19.3c-0.2,1.4-1.1,2.7-1.9,4.6
	c-1.3-10.6-2.4-20.3-3.6-30.1c-0.5,0-1.1,0-1.6,0c-0.9,6.1-2,12.3-2.8,18.4c-2.9,21.7-4.5,43.4-4.2,65.3c0.1,6.8,0.9,13.6,3.9,20.1
	c1.2-8.7,2.5-17.5,3.7-26.2c0.4,0,0.7,0,1.1,0c2.5,13.7,6.8,26.8,15.1,38.5c0.1-1.3,0.2-2.6,0.2-3.8c-0.2-16.3,0.9-32.5,3.9-48.5
	c0.9-4.9,2.8-9.6,4.2-14.4c0.5,0.1,1,0.1,1.4,0.2c0.3,2.1,0.7,4.2,0.9,6.3c0.7,10,0.7,20.1,2.1,30c0.8,5.7,3.6,11.1,5.6,16.6
	c0.3,0.9,1.3,1.7,3,2.4c1.1-7.4,2.2-14.8,3.4-23.1c4.1,7.5,7.7,14,11.3,20.5c0.5-0.1,1-0.1,1.4-0.2c1.5-11.3-1.2-23.2,3.1-34.3
	c3.9,13.3,9.7,25.4,19.3,36.3c0.6-18.7,1.2-36.5,1.8-54.4c0.5,0,1-0.1,1.5-0.1c0.3,0.9,0.8,1.8,1,2.7c1.4,8.2,4.1,16.1,8.4,23.2
	c1.6,2.7,4.1,4.9,6.8,6.6c-1.4-22-2.9-44-4.3-65.9c0.4-0.1,0.8-0.1,1.3-0.2c1.5,6.3,2.7,12.7,4.6,18.8c1.9,6.1,4.6,12.1,6.9,18.1
	c0.4-0.1,0.8-0.3,1.2-0.4c-0.6-4.1-1.3-8.3-1.9-12.4c0.3-0.1,0.5-0.3,0.8-0.4c2.7,3.6,5.4,7.1,8.7,11.5c-1-11.3-1.9-21.5-2.8-31.6
	c0.4-0.1,0.7-0.2,1.1-0.3c5,13,11.1,25.5,19.3,37c-3.8-30.8-3.9-61.5-3.2-92.2c4.2,11.2,7.8,22.7,12.7,33.7
	c4.9,10.8,11.1,21.1,17.2,31.2c-1.8-9.3-4.2-18.5-5.3-27.8c-1.1-9.4-1-18.9-0.7-28.6c4.6,11.1,10.7,20.7,20.5,28.1
	c-2.7-9.9-5.4-19.5-8-29.1c0.3-0.1,0.6-0.2,0.9-0.3c9.5,8.7,19,17.4,28.5,26.1c0.4-0.3,0.8-0.6,1.2-0.8
	c-8.6-20.4-17.4-40.7-19.1-64.1c9.8,14.5,21.5,25.6,34.2,36c-0.4-1.2-0.8-2.5-1.3-3.7c-7-16.6-14.2-33.1-21-49.7
	c-2.2-5.2-3.6-10.7-5.4-16.1c0.3-0.1,0.7-0.3,1-0.4c6.2,8.3,12,16.9,18.7,24.8c6.6,7.9,14,15.1,21.6,22.2
	c-3-10.4-11.4-18.2-13.2-30.2c5.3,4.5,9.7,8.2,14.8,12.5c-0.2-1.8-0.4-2.9-0.6-4.5c4.9,3.3,9.5,6.3,14,9.3c0.3-0.3,0.7-0.6,1-0.8
	c-1.7-3.5-3-7.2-5.1-10.5c-4.3-6.9-9.1-13.5-13.4-20.3c-3.9-6.2-7.5-12.5-11.2-18.9c-0.8-1.3-1.1-2.8-1.3-4.5
	c15.7,17,32.1,33.1,50.2,47.3c0.4-0.2,0.8-0.4,1.2-0.6c-1.4-3.4-2.6-6.9-4.3-10.2c-9.4-17.5-19.1-34.9-28.5-52.5
	c-3-5.7-5.2-11.8-7.2-18c6.8,10.4,14.5,19.9,24.3,27.4c3.9,3,8.1,5.6,12.1,8.4c0.3-0.3,0.7-0.5,1-0.8c-4.5-8.1-9.1-16.3-14.2-25.4
	c11.9,8.1,23,15.5,34,22.9c0.5-0.4,0.9-0.8,1.4-1.2c-1.6-3.5-2.9-7.2-4.9-10.5c-5.6-9.6-11.5-19.1-17.2-28.7
	c-2.7-4.5-5.1-9.2-7.4-13.9c-1.1-2.3-1.6-5-2.4-7.9c5.7,4.5,10.7,8.9,16.2,12.4c5.6,3.6,12.1,5.5,19.7,6.1
	c-9.7-17.4-25.2-29.5-35.3-45.9c10.5,7.4,21.1,14.7,31.6,22.1c0.2-0.2,0.4-0.4,0.6-0.6c-0.6-1.7-1.1-3.4-1.7-5.1
	c0.2-0.3,0.5-0.6,0.7-0.8c4.8,3.1,9.5,6.1,14.3,9.2c-7-16.9-20.6-29.1-31.1-43.4c1.6-3.5,3.3-3.4,5.9-1.2
	c11.4,9.5,22.8,18.9,34.3,28.3c0.8,0.7,1.7,1.4,2.8,1.8c-8.1-15.4-21.5-26.8-31.8-40.2c3.4-5.6,3.4-5.5,8.6-2.6
	c5.4,3.1,10.8,6.1,16.2,9.2c0.3-0.2,0.6-0.5,0.9-0.7c-2.9-3.9-5.8-7.8-9.2-12.4c7.3,2.8,14,5.4,20.7,8c0.3-0.4,0.7-0.8,1-1.2
	c-6.5-7.8-13-15.6-19.5-23.4c15.1-20.6,27.1-42.6,35.8-67.7c5.2,9.9,9.9,18.9,14.6,27.8c-0.2,0.3-0.5,0.6-0.7,1
	c-5.2-1.1-8.9-5.4-14.4-7.8c5.1,7.6,9.8,14.6,14.4,21.6c-0.2,0.4-0.5,0.8-0.7,1.2c-2.8-0.6-5.6-1.2-9-2c2.3,4.2,4.4,8.1,7,13
	c-3.7-1.4-6.6-2.4-10.2-3.8c5.8,14.4,11.5,28.2,17.1,42.1c-0.2,0.2-0.5,0.4-0.7,0.6c-6.4-4.3-12.8-8.6-20-13.5
	c0.8,17.7,7.5,32.7,12.7,48.5c-1.7-1.9-3.4-3.7-5.1-5.7c-1.6-1.9-3.1-3.9-4.7-5.9c-0.3,0.1-0.6,0.2-0.9,0.3
	c1.4,8.3,2.9,16.6,4.3,24.9c-0.4,0.2-0.9,0.4-1.3,0.6c-2-3-4.1-5.9-6.6-9.6c0,13.6,0,26.4,0,40.2c-4.2-4.5-8-8.7-12.4-13.6
	c-1.2,13.6-0.2,26.1,1.7,39.1c-1.9-1.9-3.9-3.7-5.8-5.6c-1.8-2-3.4-4.1-5.7-6.8c0,7.6,0,14.4,0,21.2c-0.3,0.1-0.5,0.1-0.8,0.2
	c-0.9-2.1-1.7-4.1-3.1-7.2c-3.4,14.1-2.8,27.5-3.6,41.3c-2.2-2.8-4.5-5.7-7.6-9.6c-0.5,11.4-1.1,21.8-1.6,33.5
	c-4.2-4.5-7.8-8.5-11.9-12.9c-0.2,1.6-0.4,2.7-0.4,3.9c0,10.2-0.1,20.4-0.1,30.6c0,1.1,0.2,2.3-0.1,3.3c-0.4,1.4-1.2,2.7-1.8,4.1
	c-1.2-0.9-2.7-1.6-3.5-2.8c-2.7-4.5-5.1-9.1-7.7-13.6c-0.4,0-0.8,0-1.2,0.1c-1.4,13-2.9,25.9-4.3,38.9c-0.2,0.1-0.5,0.3-0.7,0.4
	c-1.8-4-3.7-8.1-5.9-13c-2,6.7-3.7,12.5-5.5,18.4c-0.5,0.1-1,0.1-1.5,0.2c-1.1-2.2-2.2-4.4-3.6-7.4c-3.8,7.7-4.8,15.5-6.7,24.4
	c-3.2-4.8-5.9-8.9-9.2-13.9c-0.7,11.2-1.2,21.3-1.8,31.3c-0.3,0.1-0.6,0.1-1,0.2c-1.3-4.1-2.6-8.3-4.2-13.4
	c-8.1,13.7-13,27.7-16.9,42.7c-2.3-5.9-4.6-11.8-6.9-17.7c-0.3-0.1-0.7-0.3-1-0.4c-3.5,7-7,14-10.9,21.6c-1.7-2.3-3.1-4.2-4.9-6.6
	c-6.8,5.4-5.7,15.3-11.7,22.2c-1.9-2.3-3.4-4.2-5.4-6.6c-3.8,10.5-7.5,20.6-11.4,31.4c-5.6-5.6-5.9-12.4-7.4-19.7
	c-9.8,12-16.1,25.2-21,39.9c-2.6-3.8-4.8-7-7.7-11.4c-2.7,6.6-5,12.2-7.6,18.7c-3-2.2-6.1-4.4-9.6-6.9c-2.7,3.4-5.7,7.1-9.1,11.4
	c-1.9-3.8-3.7-7.3-5.7-11.4c-6.3,9.5-10.9,19.7-15.6,30.9c-3.5-5.7-6.5-10.6-9.9-16c-1.8,3.7-3.5,7.1-5.4,11.1
	c-0.7-3.3-1.2-6-1.9-9.6c-6.7,6.5-7.6,15-11.7,22.6c-1.7-2.6-3.2-4.7-5.2-7.8c-1.6,6-3,11.3-4.6,17.5c-2.5-2.3-4.5-4.2-6.9-6.4
	c-1,2.3-1.9,4.3-3.1,7.3c-2.4-2.6-4.5-4.9-7.5-8.2c-0.9,6.5-1.9,12.3-2.3,18.1c-0.4,6-0.1,12.1-0.1,18.5c-4.9-1.5-7.3-5-10.2-9.4
	c-3.4,13.3-3.2,26-2.4,39.8c-2.9-2.4-5.2-4.3-8-6.7c0,8.8,0,17.1,0,25.4c-0.4,0.2-0.7,0.4-1.1,0.7c-3.6-2.7-7.2-5.4-11.5-8.7
	c0,10.2,0,19.8,0,30.3c-5.7-3.8-10.5-7-16.1-10.8c1.2,9.8,2.3,18.6,3.5,28c-6.5-1.9-9.3-6.7-12.5-12.1c-3.1,7.5-5.9,14.3-9,22
	c-3.1-2.6-5.8-4.9-9-7.6c-3,6.4-5.9,12.8-9.2,19.9c-2.5-1.8-4.6-3.3-7.2-5.1c-1.5,4.2-3,8.3-4.8,13c-3.3-2.2-6.4-4.3-10-6.7
	c0,5.8,0,11.1,0,16.4c-0.3,0.1-0.5,0.3-0.8,0.4c-3.6-4.1-7.2-8.2-10.8-12.3c-0.5,0.3-1.1,0.7-1.6,1c-3,13.6-2.6,27.4-1.8,41.5
	c-3.4-4.3-6.8-8.6-10.8-13.6c-4,10.9-5.6,21.7-7.3,32.5c-0.4,0.2-0.8,0.4-1.1,0.6c-2.3-3-4.6-5.9-6.9-8.9c-0.6,0.3-1.2,0.6-1.8,0.8
	c-0.6,9.7-1.2,19.4-1.9,29.9c-7.6-3-13.5-7.8-18.7-13.7c-0.4,0.1-0.8,0.3-1.2,0.4c1.5,10,3,20.1,4.5,30.1c-0.3,0.2-0.5,0.4-0.8,0.6
	c-3.4-3.2-6.8-6.4-10.5-9.9c0,3.2,0,6.4,0,11c-3.1-2-5.2-3.4-8.1-5.2c-0.6,10-1.2,20-1.9,31.2c-6-5.5-11.1-10.2-16.5-15.1
	c0,7.8,0,15.4,0,23.3c-6.1-0.9-9.5-5.5-13.3-10.4c-0.9,4-1.7,7.3-2.6,10.9c-5.5-1.2-7.8-5.4-10.5-10.1c-6.7,12.9-8.1,26.2-6.5,40.2
	c-9.5-4.2-16.5-12.4-23.6-26.4c-0.5,9.2-1.1,18.5-1.7,28.9c-3.5-3.2-6.4-5.9-9.6-8.8c-0.7,5.2-1.3,10.2-5.6,14.3
	c-2.4-3.2-4.7-6.2-7.3-9.5c-3.4,8-6.6,15.7-10,23.6c-6.1-1.2-9.4-5.2-12.8-10.7c-3.5,6.7-6.9,13.4-10.5,20.4
	c-4.7-4.5-7.4-10.5-10.6-17.3c-2.2,4.9-4.1,9.1-6.4,14.2c-2.4-3.4-4.3-6.1-6.7-9.6c-1.8,3.9-3.5,7.5-5.3,11.5
	c-3.9-2.1-5.5-6.5-8.2-10.8c-1.3,3.3-2.3,6.2-4,10.6c-1.5-2.2-2.5-3.7-3.9-5.6c-1.2,2-2.2,3.7-3.4,5.8c-2.7-3.1-2.1-7.9-7.7-7.9
	c-5.6,0-5.1,4.7-7.8,8c-1.2-2.1-2-3.7-3-5.5c-1.4,1.4-2.8,2.7-4.5,4.3c-1.3-3.4-2.4-6.4-3.6-9.3c-2.7,3.8-5.3,7.3-8.1,11.2
	c-1.9-4.4-3.5-8.1-5.4-12.5c-2.5,3.5-4.4,6.2-6.9,9.7c-2.3-5.1-4.3-9.3-6.2-13.6c-3.6,5.9-6.9,11.5-10.5,17.5
	c-3.9-7.5-7.4-14.3-10.9-21.1c-3.5,5.3-6.7,9.5-12.8,10.6c-3.3-7.9-6.6-15.6-10-23.7c-2.6,3.4-4.8,6.4-7.3,9.7
	c-3.9-4.3-5.2-8.9-5.2-14.7c-3.3,3.1-6.2,5.7-10,9.1c-0.6-10.3-1.1-19.5-1.7-29.1c-3.4,5.4-6,10.8-9.7,15.3
	c-3.7,4.4-8.4,8-13.3,11.6c0.9-14.2-0.5-27.5-7.2-40.6c-2.6,4.7-4.9,8.9-10.4,10.2c-0.8-3.5-1.6-6.9-2.6-10.9
	c-3.7,4.6-7.1,9.1-13.3,10.5c0-7.8,0-15.4,0-23.4c-5.3,4.9-10.5,9.7-16.6,15.2c-0.7-11.2-1.2-21.1-1.9-31.4
	c-2.6,1.7-4.8,3.2-7.7,5.1c0-4.2,0-7.3,0-11.1c-3.9,3.7-7.4,6.9-10.8,10.2c-0.3-0.2-0.6-0.4-0.9-0.6c1.5-10,3-20,4.5-29.9
	c-0.3-0.2-0.7-0.4-1-0.6c-5.2,5.9-11.1,10.7-18.9,13.8c-0.6-10.2-1.2-20-1.8-29.7c-0.4-0.1-0.7-0.3-1.1-0.4
	c-2.7,2.7-5.4,5.3-8.3,8.2c-2.4-11.3-4.7-21.9-7-32.5c-0.4,0-0.8,0-1.2,0c-3.4,4.3-6.8,8.7-10.2,13c0.6-14,1.1-27.7-2.3-42.7
	c-4.1,4.8-7.7,9-11.2,13.2c-0.4-0.3-0.9-0.6-1.3-0.9c0-5.3,0-10.6,0-16.7c-3.8,2.5-7,4.5-10.4,6.7c-1.6-4.6-3-8.6-4.5-12.9
	c-2.6,1.8-4.8,3.3-7.4,5.1c-3.3-7-6.2-13.3-9.2-19.8c-3,2.6-5.7,4.9-9,7.7c-3.1-7.7-6-14.6-9.1-22.2c-2.9,5.6-6.1,10.1-12.4,12.3
	c1.2-9.5,2.2-18.3,3.4-28.1c-5.5,3.7-10.3,6.8-15.9,10.6c0-10.4,0-20.1,0-30.4c-4.3,3.3-7.9,6-12.5,9.4c0-9.5,0-17.8,0-26.8
	c-3,2.4-5.2,4.3-7.4,6.1c-0.7-12.9-1.3-25.5-1.9-38.2c-0.4,0-0.8,0-1.1-0.1c-3.1,2.9-6.1,5.9-9.6,9.2c-0.9-12.9-1.8-24.7-2.6-36.5
	c-0.4-0.1-0.8-0.1-1.2-0.2c-2.2,2.3-4.3,4.7-6.8,7.4c-1.2-2.6-2.2-4.6-3.3-7.1c-2.3,2.1-4.3,3.9-6.9,6.3c-1.5-6-2.8-11.3-4.3-17.5
	c-2,3-3.5,5.2-5.3,7.8c-4.1-7.4-4.9-16-11.7-22.6c-0.7,3.7-1.2,6.4-1.9,9.8c-1.9-3.9-3.6-7.4-5.4-11.1c-3.3,5.3-6.4,10.2-9.7,15.4
	c-5.3-10.5-10.2-20.4-15.6-31.1c-2.3,4.7-4,8.1-6,12.1c-3.4-4.2-6.3-7.9-9.2-11.5c-3.3,2.5-6.3,4.8-9.5,7.2
	c-2.6-6.5-4.9-12.2-7.6-18.8c-2.9,4.2-5.1,7.4-7.8,11.3c-4.9-14.6-11.1-27.8-20.9-39.8c-0.8,3.9-1.3,7.2-2.3,10.3
	c-1,3.1-2.6,6-3.9,9c-0.5,0-0.9,0-1.4,0c-3.7-10.2-7.4-20.3-11.3-31c-1.8,2.4-3.2,4.3-5,6.7c-6.5-6.5-5.1-16.7-12.1-22.2
	c-1.6,2.1-3,4.1-4.8,6.6c-3.8-7.6-7.3-14.6-10.8-21.5c-0.4,0.1-0.8,0.1-1.2,0.2c-2.2,5.9-4.5,11.9-6.7,17.8
	c-4-14.9-9.1-28.9-17.1-42.9c-1.6,5.2-2.9,9.4-4.1,13.6c-0.3,0-0.7,0-1-0.1c-0.6-10.1-1.1-20.2-1.8-31.5c-3.3,5.1-6,9.2-9,13.7
	c-2.2-8.4-4.1-15.9-6-23.5c-0.4,0-0.8,0.1-1.2,0.1c-1.1,2.3-2.1,4.5-3.2,6.8c-0.5,0-1,0.1-1.5,0.1c-1.8-5.9-3.6-11.8-5.6-18.4
	c-2.1,4.5-4,8.5-5.9,12.5c-0.3-0.1-0.5-0.1-0.8-0.2c-1.4-12.9-2.9-25.8-4.3-38.6c-0.4-0.1-0.8-0.2-1.2-0.3c-2.1,3.7-4,7.6-6.3,11.2
	c-1.3,2-3.2,3.6-4.9,5.3c-0.6-2.3-1.8-4.6-1.8-6.9c-0.2-11.4-0.1-22.9-0.1-35.4c-4.4,4.8-8,8.8-12.4,13.5c-0.5-11.6-1-22.1-1.5-32.6
	c-0.3,0-0.6-0.1-0.9-0.1c-2.2,2.9-4.5,5.8-6.7,8.7c-0.3-0.1-0.7-0.2-1-0.3c-0.3-13.2,0.8-26.5-2.7-40.6c-1.3,3-2.2,5-3.1,7
	c-0.2-0.1-0.4-0.1-0.6-0.2c0-6.9,0-13.7,0-21.2c-4,4.4-7.7,8.4-11.3,12.4c-0.3-0.1-0.6-0.3-0.9-0.4c2.2-12.5,3.7-25,2.2-38.8
	c-4.3,4.8-8.1,8.9-12.4,13.6c0-13.6,0-26.4,0-40.1c-2.4,3.5-4.5,6.6-6.5,9.6c-0.5-0.1-0.9-0.3-1.4-0.4c1.4-8.4,2.9-16.7,4.3-25.1
	c-0.3-0.1-0.6-0.2-0.9-0.3c-3.2,3.8-6.4,7.7-9.6,11.5c-0.3-0.1-0.6-0.3-0.8-0.4c5.7-15.4,12.6-30.4,13.4-48.2
	c-7.1,4.8-13.6,9.2-20.1,13.5c-0.3-0.2-0.5-0.4-0.8-0.6c5.6-13.8,11.2-27.6,17.1-42.1c-3.5,1.2-6.4,2.3-10.2,3.6
	c2.6-4.8,4.8-8.7,7.1-13c-3.3,0.8-6.1,1.4-9,2.1c-0.3-0.4-0.5-0.7-0.8-1.1c4.6-6.9,9.2-13.9,14.4-21.7c-5.1,3-9.6,5.5-14,8.1
	c-0.4-0.4-0.7-0.8-1.1-1.2c5.2-9.9,10.3-19.7,16-30.7c1.8,4.9,3.2,8.7,4.5,12.6c5.9,17.5,13.9,33.9,24,49.3c1,1.6,2,3.2,3,4.9
	c3.1,5.4,3,5.3-1.2,10.2c-4.4,5.1-8.5,10.3-12.8,15.5c-0.5,0.6-0.8,1.3-0.7,2.8c7-2.7,14-5.5,21.3-8.4c-3.3,4.2-6.5,8.4-9.7,12.5
	c0.3,0.3,0.5,0.6,0.8,0.9c5.1-2.9,10.4-5.8,15.4-8.8c2.6-1.6,4.3-1.8,6.5,0.8c2.2,2.7,0.9,4.2-0.8,6.1c-6.6,7.5-13.3,15-19.8,22.7
	c-3.1,3.8-5.7,7.9-8.6,11.9c0.3,0.3,0.6,0.6,0.9,0.9c12.4-10.2,24.8-20.3,37.4-30.7c1.2,1.1,2.2,2,3.6,3.3
	c-10.2,13.9-23.1,25.7-30.8,42.5c5.7-3.7,10.5-6.9,15.3-10c0.3,0.2,0.5,0.3,0.8,0.5c-0.6,1.8-1.1,3.6-1.7,5.4
	c0.2,0.2,0.3,0.5,0.5,0.7c10.5-7.3,21-14.7,31.6-22c0.2,0.2,0.5,0.5,0.7,0.7c-10.8,15.6-26.1,27.6-35.9,45.1
	c14.7-1.6,25.8-8,35.1-19.2c0.8,4.3-0.7,7.4-2.4,10.3c-7.5,13-15.1,25.8-22.6,38.8c-2.3,4.1-4.3,8.4-5.8,13.1
	c12.3-6,23.1-13.8,34.7-21.3c-4.5,8.1-9.1,16.3-13.6,24.4c16.1-7.7,27.8-19.8,36.6-34.9c0.3,0.2,0.7,0.3,1,0.5
	c-1.2,3.5-2.1,7.1-3.8,10.3c-4.4,8.7-9,17.2-13.6,25.8c-6.2,11.5-12.6,22.9-18.7,34.4c-1.6,3-2.7,6.3-3.4,9.8
	c19-13.9,35.4-30.2,50.9-47.6c0.3,0.2,0.6,0.4,1,0.6c-2.4,4.7-4.6,9.7-7.4,14.2c-4.8,7.7-10.3,15-15.2,22.6
	c-3.5,5.6-6.5,11.5-9.7,17.3c0.4,0.4,0.8,0.7,1.2,1.1c4.6-3.1,9.2-6.2,14.2-9.4c-0.2,1.3-0.3,2.4-0.6,4.4c5-4.2,9.4-7.9,13.7-11.6
	c0.4,0.2,0.8,0.4,1.1,0.5c-1.2,3.2-2.2,6.5-3.7,9.6c-1.5,3.2-3.5,6.1-5.2,9.1c-1.7,3.1-3.4,6.3-4.6,9.7
	c16.1-13.3,29.1-29.2,40.4-46.6c0.3,5.8-1.7,10.9-3.9,16c-7,16.4-14,32.8-20.9,49.2c-0.6,1.4-1,2.8-1.1,4.5
	c12.4-10.1,23.6-21.2,33.1-34.2c-1.2,22.3-10,42.3-18.2,62.8c10.6-7.5,20.3-16.1,28.9-26c0.5,0.2,0.9,0.4,1.4,0.7
	c-2.6,9.5-5.2,19.1-8,29.2c10.1-7.6,16.3-17.6,20.4-29.2c1,19.2,0.1,38.1-5.9,56.6c13.4-20.1,24.2-41.4,29.6-65.2
	c0.9,31.2,1.1,62.3-2.9,93.3c8.1-11.2,14-23.4,19.6-36.1c0,3.1,0.1,6.3,0,9.4c-0.2,3.5-0.5,7-0.9,10.5c-0.4,3.3-0.8,6.5-0.4,10.2
	c2.6-3.4,5.2-6.9,7.7-10.3c0.3,0.1,0.6,0.3,0.9,0.4c-0.7,4.2-1.3,8.4-2,12.5c0.3,0.1,0.7,0.3,1,0.4c2.3-5.9,5-11.7,6.9-17.7
	c1.9-6,3.1-12.3,4.9-18.4c0.8,21.7-1,43.2-3.8,65.1c3.9-0.5,5.8-3.1,6.9-5.7c3.2-7.3,5.9-14.7,8.6-22.1c0.7-1.8,0.8-3.7,1.5-5.6
	c3.6,17.9,2.8,36.1,3.2,54.5c5.1-4.7,9-10.4,11.8-16.6c2.8-6.1,5.1-12.5,7.9-19.3c4.1,11.5,1.3,23.2,2.9,35.7
	c5.5-6.7,8.5-13.5,11.7-20.3c0.4,0,0.7,0,1.1,0c1.1,7.3,2.2,14.6,3.3,22c0.5,0.1,1,0.2,1.6,0.4c1.6-3.3,3.6-6.4,4.9-9.8
	c3.2-8.6,3.5-17.8,3.8-26.8c0.2-6.3,0.6-12.6,0.9-18.8c0.6-0.1,1.2-0.2,1.7-0.3c1.4,4.3,3.1,8.4,4,12.8c3.2,15.8,4.3,31.9,4.2,48
	c0,2,0,4,0.4,6.1c8-11.5,12.2-24.4,14.9-38c0.4,0,0.8,0,1.2,0c1.2,8.5,2.4,17.1,3.8,26.5c2.7-5.2,3.1-10.1,3.4-14.9
	c1.4-22.7-0.4-45.2-3.2-67.7c-0.7-5.7-1.6-11.4-2.5-17c-0.2-1.5-0.6-3-1-4.5c-0.5,0-0.9,0-1.4,0c-1.1,9.8-2.2,19.6-3.5,30.4
	c-1.1-2.8-2.1-4.8-2.7-6.9c-3.1-11.5-2-23.1,0.4-34.6c2.4-11.4,5-22.7,7.5-34c0.2-1.1,0.3-2.2,0-3.4c-6.6,10.6-12,21.7-15.6,33.7
	c-0.3-0.1-0.6-0.2-0.9-0.3c1.3-6.4,2.5-12.8,3.8-19.2c-0.3-0.1-0.5-0.2-0.8-0.4c-3.3,5.1-6.7,10.2-10,15.3
	c4.3-24.7,9.4-49.1,9.6-74.4c-20.1,22.5-38.1,46.1-40.1,77.9c-0.4,0-0.8,0.1-1.2,0.1c-0.3-1.9-0.9-3.8-0.9-5.8
	c-0.4-20.8,3.4-40.9,11.4-60.1c0.8-1.9,1.6-3.8,2.4-5.8c-15.5,3.4-29.4,16.7-38.3,36.8c-2.3-4.4-2.1-8.7-1.5-13
	c1.1-7.6,4.5-14.2,8.8-20.4c3.6-5.1,7.3-10,10.6-15.4c-7.7,2.4-13.5,7.5-20,12.3c2.1-4.1,4.3-8.3,6.7-13c-10.8,2.6-16,10.9-21.6,20
	c-1.3-5.6-0.5-10.1,1.1-14.3c2.1-5.3,4.6-10.5,7.2-15.6c4.3-8.5,8.9-16.9,13-25.5c1.3-2.7,2.9-2.8,5.2-2.8c17.1,0,34.1,0,51.2-0.1
	c3.7,0,7.7,0.7,9-4.6c0.2-1,2.5-1.7,4-2.2c15.7-5.1,31.5-10.2,47.2-15.3c2.1-0.7,4.1-1.4,6.4-1.5c-13,14.5-30.8,19.5-48.5,25.1
	c17.4,2.3,34.5,0.8,52-2c-0.8,5.1-4.4,7.3-7.8,9.4c-7.9,4.8-16,9.3-24,13.9c-1.3,0.8-2.6,1.6-3.7,2.8c15.5-1.8,30.3-6.2,45-11.5
	c-13.2,17.1-31.8,27.8-48.3,41.7c3.9,1.8,7.4,0.8,10.6-0.7c13.9-6.3,27.7-12.8,41.6-19.3c4.1-1.9,8-4.2,12-6.3
	c0.3,0.3,0.6,0.6,0.8,0.9c-2.3,3.1-4.4,6.5-7.1,9.2c-5.9,5.8-12.2,11.2-18.2,16.9c-5.6,5.4-11,11-16.3,16.8
	c-1.8,1.9-2.8,4.5-4.2,6.7c0.3,0.4,0.5,0.8,0.8,1.2c3.6-1.3,7.3-2.5,10.9-4.1c18.9-8.5,36.1-19.6,51.5-33.5
	c9.9-8.9,20.3-17.3,31-26.4c-9.3,2.8-18.1,5.5-26.8,8.2c-0.1-0.4-0.3-0.7-0.4-1.1c11.7-5.2,23.7-9.9,34.9-18.3
	c-12.2-0.9-23.3,0.4-34.3,2.8c-0.1-0.3-0.2-0.7-0.2-1c12.2-4.1,24.4-8.2,36.6-12.2c-18-2.4-35.7-0.6-53.1,4
	c-0.1-0.4-0.2-0.7-0.3-1.1c3.7-1.4,7.2-3.1,11-4.3c13.7-4.1,27.5-7.9,41.2-12.1c7.1-2.2,14.1-5.1,21.1-7.7c1.3-0.5,2.4-1.3,3.6-1.9
	c-0.1-0.5-0.1-0.9-0.2-1.4c-15.8,0.6-31.5,1.2-47.3,1.7c-0.1-0.2-0.1-0.3-0.2-0.5c14.3-3.4,28.5-6.8,42.8-10.2c0-0.2,0-0.4,0-0.6
	c-16,0-32,0-48,0c-0.1-0.5-0.2-0.9-0.3-1.4c7.9-3,15.8-5.9,23.7-8.9c0-0.2,0-0.4,0-0.7c-6,0-12,0-17.9,0c0-0.4-0.1-0.7-0.1-1.1
	c2.3-0.8,4.7-1.5,7-2.5c6.2-2.5,12.3-5.1,18.5-7.7c1.5-0.6,2.9-1.8,4.4-1.8c5.7,0.2,8.4-3.9,11.3-7.6c6.2-7.9,12.3-15.9,18.2-24
	c1.8-2.5,2.8-5.5,4.2-8.2c-0.4-0.3-0.7-0.6-1.1-1c-4.7,2.4-9.4,4.8-14.1,7.2c-0.1-0.1-0.2-0.2-0.3-0.3c9.8-9.7,20-19.1,29.4-29.1
	c9.6-10.2,18.6-20.9,27.5-31.8c8.8-10.9,17-22.2,25.9-33.8c-1.1,13.6-5.2,25.9-10.1,38.8c5.2-0.9,8-3.7,9.2-7.5
	c3.1-9.3,5.8-18.8,8.6-28.2c0.2-0.7,0.3-1.4,0.9-2.1c1,15.7,0.4,31.3-1.7,47c4.2-3.5,6.6-8,8-13c1.4-5,2.3-10.2,4.2-15.3
	c0,4.4,0.2,8.8-0.1,13.2c-0.3,4.8-0.9,9.5-1.7,14.2c-0.8,4.5-1.8,9.1-3.1,13.5c-1.3,4.4-3,8.6-4,13.2c15.8-19.7,28.4-41.2,38-64.6
	c-5.9,5.1-11.8,10.2-17.8,15.3c-0.3-0.3-0.6-0.6-0.9-0.9c4.2-6.7,8.7-13.2,12.5-20.1c3.7-6.8,6.6-14,9.8-21c-0.3-0.2-0.6-0.3-1-0.5
	c-6.3,7.1-12.7,14.2-19,21.4c-0.4-0.3-0.8-0.5-1.2-0.8c5.4-13.2,14.8-24.8,17.2-39.3c-5.8,8.1-11.9,16-20.7,22.5
	c6.6-19.8,18.5-36.8,21.4-57c-0.3-0.2-0.7-0.3-1-0.5c-5.7,8.3-11.4,16.7-17,25c-0.5-0.2-0.9-0.5-1.4-0.7c3.3-7.7,6.2-15.6,9.9-23.1
	c8.6-17.2,14.7-35.4,18.3-54.1c2.1-10.9,1.8-22.2,2.7-33.3c0.2-2.5,0-5.5,1.3-7.3c5.8-8.2,6-17.6,6.5-27c0.1-1.9,0.1-3.8,0.3-5.7
	c0.5-5,3.3-8.3,8-9.7c12.1-3.6,24.2-6.9,37-6.7c11.6,0.1,23.3-0.1,34.8,0.7c12.4,0.9,24.4,4.5,36.1,8.7c3.7,1.3,5.2,3.9,5.2,7.6
	c0.1,6-0.1,12.1,0.8,18.1c0.6,4.5,2.7,8.7,4.1,13c0.7,2,1.8,4.2,1.7,6.2c-1.2,14,0.6,27.7,4.3,41.1c3.2,11.8,6.5,23.6,9.8,35.5
	c3.1,11.1,5.6,22.5,9.4,33.3c3.8,10.8,9,21.1,13.6,31.6c0.6,1.3,1.1,2.6,1.3,4.2c-8.3-5.8-14.6-13.6-20.2-21.9
	c0.8,7.4,4.1,13.8,7.4,20.2c3.3,6.3,6.6,12.6,9.5,19.3c-7.7-5.8-13.9-12.9-19.7-20.6c3.5,15.8,12.6,28.6,21,42.4
	c-2-1.4-4.2-2.7-6.1-4.2c-2.1-1.7-4.2-3.4-6.1-5.4c-1.9-1.9-3.6-4-6-5.6c9.3,23.6,21.8,45.1,37.6,64.8c-2.4-8.9-5.1-17.7-7-26.7
	c-2-9.1-2.3-18.4-1-27.7c1.8,10.3,3.3,20.5,11.1,28.7c-0.8-16.2-1.5-31.8-2.3-47.5c0.4,0,0.8,0,1.1-0.1c1.8,6.8,3.4,13.7,5.5,20.5
	c1.2,4.1,3,8.1,4.9,11.9c1.5,3,3.9,5.3,8.2,5.5c-4.5-11.8-8.5-23.1-8.7-35.6c9.7,11.7,19,23.7,29.2,35
	c10.2,11.4,21.1,22.1,31.9,32.9c10.7,10.7,23.6,18.9,33.6,30.4c-0.2,0.2-0.5,0.5-0.7,0.7c-8.8-5.2-17.7-10.3-26.5-15.5
	c-0.4,0.3-0.8,0.7-1.2,1c1.1,2.5,1.7,5.3,3.3,7.4c7.4,10,15.1,19.8,22.8,29.5c0.9,1.1,2.5,1.7,3.9,2.3c11,4.3,22,8.6,33,13.6
	c-6,0-11.9,0-17.9,0c0,0.3-0.1,0.5-0.1,0.8c8,3,16.1,6,24.1,9c-0.1,0.4-0.2,0.7-0.3,1.1c-16,0-32,0-48,0c0,0.3-0.1,0.5-0.1,0.8
	c14.6,3.5,29.2,7,43.8,10.5c-0.1,0.1-0.1,0.2-0.2,0.4c-16.1-0.6-32.2-1.1-48.3-1.7c-0.1,0.5-0.2,1-0.3,1.5c4.8,2,9.4,4.4,14.3,5.9
	c14.9,4.6,29.9,8.7,44.8,13.3c6.2,1.9,12.3,4.3,18.1,7.3c-8.7-1.4-17.4-3.4-26.2-4.1c-9-0.7-18.1-0.2-27.4,0.5
	c11.6,3.9,23.3,7.8,34.9,11.7c-0.1,0.4-0.2,0.7-0.3,1.1c-10.4-1.7-20.9-3.3-31.6-2c10.3,8.3,22.3,13.2,34.3,18.2
	c-0.1,0.3-0.2,0.7-0.3,1C1266,1272.5,1256.8,1269.7,1247.3,1266.8z M1176.2,1502.2c-0.6-0.1-1.2-0.2-1.8-0.4
	c-1.1,2.2-2.1,4.4-3.4,6.5c-12.7,20-30.7,31.2-54.5,31.7c-10.9,0.2-21.1,2.2-30.8,7.2c-5,2.6-7.5,6.2-7.8,11.6
	c-0.1,2.1-0.1,4.1,0,6.2c1.1,26.9-15.2,48.4-41.4,54.2c-4,0.9-6.6,3-7.1,6.7c-0.7,5-0.6,10.1-0.6,15.1c0,2.1,0.8,4.2,1.3,6.3
	c-0.4,0.2-0.8,0.4-1.1,0.6c-2.2-3.1-4.4-6.3-6.7-9.6c-1.9,9.2,0.5,17.8,4,26.2c-0.3,0.2-0.7,0.4-1,0.6c-2.8-1.8-5.7-3.6-8.8-5.6
	c1.5,9.2,6.3,16.2,13.5,22.8c-3.5,0.5-5.8,0.8-8.1,1.1c4.6,10.4,18.1,18.8,29.2,18.2c3.2-0.2,5.5-1.6,6.5-4.7
	c1.1-3.3,2.2-6.7,2.7-10.1c0.7-4.9,0.9-10,1.3-15.8c7.6,10.8,12,22.2,15.2,35.1c3.8-6.2,2-12.1,3.8-17.7c1.6,6.2,3.3,12.4,4.9,18.6
	c3.7-9.8,3.7-19.6,1.2-29.2c-2.4-9.5-5.9-18.8-8.9-28.2c17.8,19.1,27.4,43.3,40.6,66c5.2-10.1,3.4-20.3,3.8-30.5
	c3.6,6.7,7.3,13.4,10.9,20.1c0.5-0.1,0.9-0.2,1.4-0.3c0.5-9.1,0.9-18.1,1.4-27.9c2.3,6,4.4,11.4,6.5,16.9
	c0.5-15.7-3.4-30.3-9.2-44.5c1.3,0.8,2.2,1.6,3,2.6c1.4,1.9,2.9,3.9,3.9,6c8.5,17.4,17,34.9,25.5,52.4c0.6,1.3,1.2,2.6,1.8,3.9
	c3.4-26.9-6.4-50.8-15.2-75.2c23.1,19,33.1,46.4,46.6,72.5c0.2-1.9,0.5-3,0.5-4c-0.7-6.9-1.4-13.8-2.1-20.8c2.7,4,5.5,8.2,9,13.3
	c0.4-4.6,0.7-7.9,1-11.3c0.3-0.1,0.6-0.1,0.9-0.2c2.6,4.3,5.2,8.7,7.8,13c-1.3-27-15.4-48.5-28.6-70.5
	c17.3,10.6,30.2,25.2,40.6,42.5c0.7-2.2,1.2-4.3,0.6-6c-2.1-6.1-3.7-12.7-7.2-18c-4.4-6.7-10.5-12.3-15.9-18.4
	c-1.1-1.2-2.3-2.4-3.5-3.5c0.3-0.5,0.5-0.9,0.8-1.4c3.7,1.2,7.6,1.9,11,3.6c16.8,8.2,31.2,19.6,43.2,34c0.4,0.5,0.8,1,1.2,1.5
	c0.4,0.4,1,0.8,2.2,1.8c-2.6-8.3-7.7-13.5-13.2-18.4c-4.6-4.1-9.3-8.3-13.8-12.5c-1.3-1.2-2.1-2.8-3.2-4.2c0.3-0.5,0.6-1,0.8-1.5
	c9.7,1.6,19.5,3.2,29.3,4.8c-5.3-7.1-12.5-12-20.2-16.3c13.4-2.8,26.1,1.1,39,3.4c-4.1-3.7-9.1-5.3-14.2-6.2
	c-13.2-2.3-26.4-4.3-39.6-6.5c-1.7-0.3-3.6-0.5-5-1.4c-1.2-0.7-2.3-2.4-2.3-3.7c0-0.9,1.6-2.1,2.7-2.9c0.7-0.5,1.8-0.7,2.7-0.8
	c13.1-1.3,26.3-2.8,39.4-3.9c8.4-0.7,16.9-0.9,25.3-1.3c-19.1-4.6-38.5-5.7-58.2-5.9c1.8-1.9,3.6-3.4,5.7-4.1
	c7.6-2.7,15.3-5.2,23-7.8c1.2-0.4,2.5-0.8,3.7-1.3c0-0.2-0.1-0.5-0.1-0.7c-8.1-0.6-16.2-1.3-24.3-1.9c-0.1-0.5-0.2-1-0.3-1.4
	c11.6-4.6,23.3-9.2,35.8-14.1c-20.8,0.2-39.5,5.1-57.9,12.3c3.5-4.6,6.8-9.3,11.1-12.6c8.8-6.8,18-13.1,27.4-19.1
	c9-5.8,18.3-10.9,27.5-16.3c1.2-0.7,2.3-1.7,3.4-2.5c-0.3-0.4-0.5-0.9-0.8-1.3c-26.6,10.1-51.8,23.3-76.7,37.4
	c3.1-8.3,6.5-16.1,10.4-23.8c5-9.7,11.7-18.1,20.3-25.1c-3.5,0.9-6.7,2-9.6,3.8c-17.4,10.8-31.5,25.3-45.5,39.9
	c-1.1,1.1-2.2,2.2-3.4,3.3c-0.3-0.2-0.5-0.4-0.8-0.6c4.5-12.3,9-24.6,13.9-38c-10.6,2.9-14,12.4-21.1,18.3
	C1175.1,1523.6,1181.3,1513.5,1176.2,1502.2z M727.8,1557.8c-0.1,0.5-0.1,1.1-0.2,1.6c12,4,23.8,8.2,35,13.8c-0.1,0.3-0.1,0.7-0.2,1
	c-8.1,0.6-16.3,1.3-24.4,1.9c5.6,2.4,11.2,3.9,16.7,5.9c5.5,2,11.5,3.3,15.6,8.1c-19.6,0.2-39,1.2-58.1,5.6c0.9,0.5,1.9,0.5,2.8,0.6
	c15.7,1,31.5,1.9,47.2,3c5.5,0.4,11.1,1.2,16.5,2.3c1.5,0.3,2.6,2.3,4,3.5c-1.2,1.3-2.3,2.9-3.7,3.9c-1.1,0.7-2.7,0.7-4.2,0.9
	c-13.2,2.2-26.4,4.2-39.6,6.5c-5.1,0.9-10.1,2.4-14.1,6.4c12.9-2.7,25.7-6.2,39.1-3.5c-7.8,4.2-14.8,9.1-19.8,16.4
	c9.7-2.3,19.3-4.7,29.6-3.3c-3.3,4.1-6.8,7.6-10.4,11.1c-4.9,4.7-10.1,9.2-14.8,14.2c-2.2,2.4-3.3,5.7-4.9,8.6
	c0.3,0.2,0.6,0.4,1,0.6c1.9-2.2,3.7-4.3,5.6-6.5c11.7-13.1,25.5-23.5,41.4-31.1c3.2-1.5,6.5-2.8,11.3-1.8c-5,4.9-9.5,9-13.6,13.4
	c-6.9,7.5-12.1,16-13.6,26.3c-0.3,2.1,0,4.2,0,6.3c0.4,0.1,0.8,0.3,1.3,0.4c9.7-17.6,22.7-32.2,40.3-43.4
	c-6.8,12-13.4,23.1-19.2,34.5c-5.8,11.4-9.8,23.5-9.6,36.7c2.6-4.4,5.2-8.7,7.8-13.1c0.3,0.1,0.6,0.3,0.9,0.4
	c0.3,3.3,0.7,6.7,1.1,10.9c3.4-5.1,6.1-9.3,8.9-13.5c-1.5,8-3.2,15.8-1.4,23.9c1.5-2.2,2.5-4.5,3.6-6.7c7.2-13.7,14-27.5,21.8-40.8
	c4-6.9,9.6-13,14.8-19.3c1.6-1.9,4-3.2,6.5-5.1c-4.4,13.1-8.9,25.1-12.6,37.4c-3.7,12.3-5,25-3.3,37.9c1-1.3,1.6-2.7,2.2-4.1
	c8.5-17.4,16.9-34.9,25.6-52.3c1.5-3,3.9-5.7,5.9-8.5c0.4,0.2,0.7,0.4,1.1,0.6c-6.3,14-10,28.5-9.4,44.1c2-5.4,4.1-10.8,6.1-16.2
	c0.3,9.4,0.4,18.4,3.3,27.3c3.6-6.7,7.3-13.5,10.9-20.2c0.1,10.4-1.6,20.7,3.8,31.1c3-5.7,5.5-10.7,8.2-15.6
	c7.1-12.6,14-25.4,21.4-37.8c2.8-4.8,6.8-8.9,10.2-13.3c0.4,0.2,0.8,0.4,1.2,0.6c-7.5,18.4-14.7,36.9-8.2,57.3
	c1.6-6.2,3.2-12.4,4.9-18.6c1.9,5.6,0,11.5,3.9,17.6c3.2-13,7.6-24.4,15.3-34.4c0.4,2.5,0.1,4.9,0.4,7.3c0.9,5.8,1.9,11.6,3.2,17.3
	c0.7,3,2.7,4.9,6,5.4c10.9,1.4,26.2-7.9,29.9-18.2c-2.3-0.4-4.6-0.8-7.8-1.4c7.3-6.6,12-13.5,13.3-22.4c-3.1,1.8-6,3.6-8.9,5.4
	c-0.2-0.3-0.4-0.6-0.7-0.9c3.7-8.2,5.7-16.7,4-25.7c-2.4,3.3-4.6,6.4-6.8,9.4c-0.4-0.2-0.7-0.4-1.1-0.6c0.3-1.2,0.7-2.4,0.8-3.6
	c0.2-5.4,0.8-10.7,0.3-16.1c-0.4-4.6-3.3-7.3-8.3-8.5c-21.7-5.3-35.2-19.1-39.8-41c-1.1-5.2-0.7-10.8-0.7-16.2
	c0.1-7.2-2.4-12.2-9.4-15.4c-9.7-4.4-19.5-5.9-30-6.4c-25.6-1.2-44.7-13.2-56.1-36.6c-0.3-0.6-1.1-1-2.3-2.1
	c-6.1,12.2,0.7,22.4,3.9,33.9c-3.7-4.3-6.6-7.9-9.6-11.3c-3-3.3-5.9-6.9-11.4-7.2c4.8,13.1,9.3,25.4,13.8,37.7
	c-8.1-7.2-15.2-14.9-23.1-21.8c-9-7.8-18.7-14.9-28.2-22c-2.2-1.6-5.1-2.2-7.7-3.3c16.7,13,28.7,41,29.8,49.6
	c-24.7-14.6-49.8-28-77-37.3c0.9,1.4,2.1,2.4,3.4,3.2c9.2,5.5,18.5,10.6,27.5,16.4c9.5,6.1,18.8,12.5,27.7,19.4
	c4.3,3.3,7.5,7.9,11.2,11.9c-9.8-2.5-18.8-6-28.2-8.1C747.4,1560.1,737.5,1559.2,727.8,1557.8z M1016.5,1814.5
	c1,8.2,0.5,16.5,3.6,24.6c1.8-3.3,3.6-6.5,5.7-10.6c0.4,2.9,0.6,5,0.9,7.1c4-13.3,3.3-26.8,3.7-40.4c7.4,20.8,17.6,40.8,18.5,64.3
	c4.3-4.3,4.6-8.9,4.7-13.4c0.1-11.2,0.1-22.3,0.1-33.5c0-1.3,0.2-2.6,0.3-4c0.4-0.1,0.9-0.3,1.3-0.4c3.8,7.2,7.5,14.5,11.6,22.2
	c1.2-3.7,2.3-7.1,3.6-11.1c1.4,2.6,2.5,4.7,3.6,6.9c0.4-0.1,0.7-0.2,1.1-0.3c2.3-13.5,1-27.1,0-40.7c8.8,9.8,13.9,21.3,17.2,33.8
	c6.1-11.1,2.5-22.6,1.5-34.1c0.3-0.1,0.7-0.3,1-0.4c6.3,10.7,12.6,21.3,19.2,32.7c3.1-9.8-0.6-18.2-2.3-26.7
	c0.3-0.1,0.6-0.2,0.9-0.3c1.8,2.3,3.6,4.6,5.8,7.5c1-2.8,1.8-4.9,2.8-7.7c2.3,3.2,4.4,6.2,6.6,9.1c3.1-14.8-6.2-24.4-13.8-35
	c15.5,6.9,29.1,16.4,43.1,26.5c1.4-6.4-0.7-11.4-3.9-15.8c-3-4.1-6.6-7.8-9.8-11.8c-1.2-1.5-2.1-3.2-3.2-4.8
	c0.3-0.4,0.6-0.8,0.9-1.2c4.3,1.4,8.8,2.4,13,4.2c4.1,1.8,7.9,4.3,12.2,6.6c0.5-3.9,0.9-7.3,1.3-11.1c4.1,2.4,7.9,4.7,12,7.2
	c2.2-5.4,1.1-10-0.7-14.8c8,0.4,13.8,7,22.6,5.8c-5.1-8.7-13.9-11.3-20.9-16.1c-7.3-5-15-9.4-22.5-14c-0.5,0.2-0.9,0.5-1.4,0.7
	c0.6,5.2,1.3,10.4,2.1,16.5c-8.2-3.4-16.3-6.7-24.7-10.2c0,3.2,0,6.3,0,10c-2.9-1.3-5.6-2.6-8.7-4c0,3,0,5.5,0,8.9
	c-6.4-3.6-12.2-6.9-18-10.1c-0.3,0.2-0.6,0.5-0.9,0.7c1.7,5.3,3.4,10.6,5.3,16.7c-5.3-3.9-10.1-7.3-14.8-10.7
	c-0.3,0.2-0.6,0.3-0.9,0.5c0.9,5.4,1.7,10.7,2.6,16.4c-10-1.6-15.3-8.7-21.1-15.2c-0.4,0.2-0.8,0.4-1.2,0.6
	c2.8,10.2,5.6,20.3,8.5,30.5c-0.3,0.2-0.5,0.4-0.8,0.6c-8.9-8.9-17.8-17.8-26.8-26.8c0.4,11.5,6,21.9,7.1,33.5
	c-4-5.4-8-10.8-12-16.2c-0.4,0.1-0.7,0.2-1.1,0.4c0,3.4,0,6.8,0,10.2c-0.3,0.1-0.5,0.2-0.8,0.3c-2.1-2.5-4.2-4.9-6.7-7.8
	c0,3.7,0,6.9,0,10c-0.4,0.3-0.9,0.7-1.3,1c-3.1-3.6-6.2-7.3-9.8-11.6c-0.3,5.6-0.5,9.9-0.8,14.3c-0.4,0.1-0.9,0.3-1.3,0.4
	c-3.4-5.7-6.8-11.4-10.2-17c-0.4,0.1-0.9,0.2-1.3,0.4c-0.5,7.7-0.9,15.5-1.4,23.2c-0.5,0.1-0.9,0.2-1.4,0.3
	c-1.1-1.5-2.5-2.8-3.2-4.4c-1.5-3.6-2.9-7.4-4-11.2c-1.5-5.3-2.8-6.5-8.3-6.5c-5.9-0.1-7.4,1.1-8.9,6.4c-1.2,4.1-2.7,8.1-4.4,12.1
	c-0.6,1.5-2.2,2.5-4.1,4.4c-0.6-9-1.1-16.7-1.6-24.4c-0.4,0-0.8-0.1-1.2-0.1c-3.9,5.4-6.2,11.9-10.6,16.9c-0.5-0.1-0.9-0.3-1.4-0.4
	c0-4.5,0-8.9,0-14.1c-4.1,4.1-7.5,7.4-10.8,10.8c-0.3-0.2-0.6-0.4-0.9-0.7c0-3,0-6.1,0-10c-1.5,2-2.4,3.4-3.4,4.5
	c-1,1.2-2.2,2.2-3.3,3.2c-0.2-3.8-0.4-7-0.6-10.3c-0.4,0-0.9-0.1-1.3-0.1c-3.9,5.3-7.9,10.6-11.8,16c-0.3-0.2-0.6-0.4-0.9-0.6
	c2.3-11.2,7.5-21.7,8.1-33.2c-9.2,9.2-18.3,18.2-27.4,27.2c-0.3-0.2-0.7-0.4-1-0.7c4-10,7.2-20.1,8.2-30.9
	c-6.1,6.4-11.6,13.6-21.5,15.1c1-5.9,1.9-11.2,2.8-16.5c-0.3-0.1-0.7-0.2-1-0.4c-4.7,3.4-9.4,6.8-14.7,10.7
	c1.9-6.2,3.6-11.6,5.3-17.1c-0.3-0.1-0.6-0.3-1-0.4c-5.9,3.4-11.8,6.7-18.2,10.4c0-3.4,0-6.1,0-9c-3.2,1.5-5.7,2.6-8.5,3.9
	c0-3.7,0-6.8,0-10c-8.4,3.5-16.5,6.8-24.6,10.1c1-6.1,2.5-11.3,0.8-17.6c-13.7,8.7-27,17.1-40.2,25.6c-1.3,0.9-1.9,2.9-3.2,5
	c8.6,0.9,14.3-5.7,21.9-5.8c-1.4,4.9-3.2,9.5-0.4,14.5c3.9-2.3,7.8-4.6,11.9-7c0.4,4,0.7,7.4,1.2,11.6c8.2-5.9,16.3-10,26-10.3
	c-1.9,3.2-4.2,6-6.4,8.9c-3.1,4-6.3,8-9,12.3c-2,3.2-2.5,7-1.3,11c0.8-0.3,1.3-0.4,1.6-0.6c11.7-7.8,23.3-15.6,35-23.3
	c1.9-1.2,4.3-1.7,6.4-2.5c0.2,0.4,0.3,0.7,0.5,1.1c-8.6,9.9-17.5,19.6-14.9,35c2.5-3.5,4.7-6.5,7.1-9.7c1,2.8,1.8,4.9,2.9,7.6
	c2.5-3.2,4.4-5.7,6.4-8.3c-1.8,8.9-4.9,17.5-2.2,27.8c6.9-11.4,12.7-22.2,19.6-32.3c-0.2,11.5-4.2,22.8,1.9,34.3
	c2.4-6.5,4.4-12.5,6.9-18.2c2.5-5.8,5.8-11.2,10.9-16.4c-1.3,14.4-2.6,28,0.6,41.6c1.2-2.1,2.3-4.1,3.7-6.6
	c1.3,3.8,2.5,7.2,3.6,10.5c3.7-7.8,7-15.2,12.8-21.4c0.6,10.1,0.6,20.1,0.7,30.1c0,4.1-0.1,8.3,0.5,12.4c0.4,2.6,1.8,5.1,2.8,7.6
	c0.5-0.1,0.9-0.1,1.4-0.2c0.8-22.7,10.9-42.7,18.4-63.5c0.3,13.6-0.2,27.2,4,40.4c0.2-2.3,0.3-4.5,0.5-7.6c2.3,4.3,4.3,7.8,6.2,11.3
	c0.4-0.1,0.8-0.2,1.2-0.3c0.7-8.3,1.4-16.5,2.1-25.9c6,12.8,5.6,27.4,16.2,37.2C1010.9,1840.6,1010.6,1826.3,1016.5,1814.5z
	 M1000.2,1587.2c0-0.2,0-0.4,0.1-0.6c2.2,0,4.5,0,6.7,0c17-0.4,29.1-8.1,35.8-23.9c1.9-4.5,4.2-8.9,6.5-13.3
	c4.9-9.7,12.2-16.6,22.5-20.2c4.8-1.7,9.6-3.5,14.1-5.8c10.1-5.2,17.5-12.8,19.1-24.6c1.3-9.6-5.4-18.4-14.3-19.3
	c-11.3-1.1-21.8,0.3-30.8,8.3c-6.7,5.9-14.9,8.4-23.8,8.4c-23.9,0-47.8,0-71.7,0c-8.8,0-16.7-2.6-23.4-8.3c-8.1-7-17.3-9.3-27.9-8.6
	c-11.3,0.8-18.8,9.5-16.7,20.7c2,10.5,8.5,17.6,17.6,22.6c3.9,2.1,8.1,3.9,12.3,5.2c13.6,4.2,22.5,13.2,28.1,26.1
	c2.5,5.8,5.5,11.5,8.8,16.9c4.5,7.6,11.3,12.5,20.1,14.1C988.8,1585.9,994.5,1586.4,1000.2,1587.2z"/>
<path d="M1512.6,1258.6c-4.7-3.5-9.1-6.8-13.4-10.1c-0.2,0.2-0.3,0.3-0.5,0.5c2.4,5.6,4.8,11.1,7.2,16.7c-0.3,0.2-0.6,0.4-0.8,0.5
	c-6.1-4.8-12.2-9.5-18.3-14.3c-0.3,0.2-0.6,0.5-1,0.7c6.6,11.7,12.3,23.6,10.6,37.5c-5.2-22.4-23.4-34.2-39.4-47.8
	c0.1-0.3,0.3-0.6,0.4-0.9c2.3-0.3,4.6-0.9,6.9-0.9c11.2-0.1,22.1-2.5,32.8-5.5c1.9-0.5,3.7-1.2,4.9,1.2c3.4,6.8,6.9,13.6,10.4,20.4
	C1512.6,1257,1512.5,1257.6,1512.6,1258.6z"/>
<path d="M501.8,1248.6c-4.4,3.3-8.8,6.7-13.2,10c-0.2-0.1-0.5-0.2-0.7-0.3c1.5-3.3,3-6.6,4.6-9.8c1.8-3.5,3.2-8.5,6.1-9.9
	c2.8-1.3,7.4,1.4,11.2,2.2c4.5,1,9,1.8,13.6,2.7c2.5,0.5,4.3,1.3,5.4,4c0.6,1.5,2.9,2.3,3.6,2.9c-5.3,5.7-11.2,11.8-16.8,18.3
	c-5.5,6.4-9,14.1-11.1,22.3c-1.7-14.2,3.8-26.4,10.7-38.1c-0.2-0.3-0.5-0.6-0.7-0.9c-6.3,4.9-12.6,9.8-18.9,14.6
	c-0.3-0.2-0.5-0.3-0.8-0.5c2.5-5.6,4.9-11.2,7.4-16.8C502.2,1249.1,502,1248.8,501.8,1248.6z"/>
<path d="M923.2,805.4c-5.8,5-11.6,10-17.4,14.9c-0.4-0.3-0.8-0.6-1.2-1c0.6-1.5,1-3.1,1.8-4.6c3.9-7.3,8-14.5,11.9-21.8
	c1.2-2.3,3.2-2.3,5.3-2.2c17.2,0.4,34.4,1,51.6,1c33.5,0,66.9-0.3,100.4-0.7c4.1,0,6.3,1.1,8.1,4.8c3.1,6.3,6.8,12.3,10.1,18.4
	c0.9,1.6,1.3,3.4,1.5,5.4c-7.5-3.4-12.2-9.9-19.3-14c1.7,2.6,3.3,5.3,5,7.9c2.4,3.6,4.7,7.2,7.2,10.7c1.6,2.2,1.5,3.9-0.1,6
	c-1.3,1.7-2.1,3.9-3.2,5.8c-1.4,2.3-3.6,2.6-4.9,0.3c-7.8-13.8-21.8-17.5-35.4-21.1c-26.6-6.9-53.7-7.1-80.7-3
	c-10.9,1.7-21.6,5.4-32.1,9c-6.1,2.1-11.5,6.1-15.4,11.6c-1.1,1.5-1.8,4.2-4.6,2.9c-2-1-3.4-6.1-2.2-8c1.5-2.4,3.2-4.7,4.8-7.1
	c3.2-4.9,6.4-9.8,9.6-14.7C923.7,806,923.4,805.7,923.2,805.4z"/>
<path d="M894.1,810.5c-6.2-4.3-5.6-4.2-3.3-10.2c3.4-8.8,8.9-12.3,18.1-10.2c1.5,0.3,3,0.3,4.5,0.4c0.2,0.4,0.4,0.7,0.6,1.1
	C907.4,797.9,900.7,804.3,894.1,810.5z"/>
<path d="M1111.3,804c-2.3,2.1-4.1,3.6-6.3,5.6c-6.2-5.8-12.2-11.5-18.2-17.2c0.1-0.5,0.3-1,0.4-1.4c5.2-0.1,10.5-0.2,15.7-0.2
	c0.7,0,1.6,1,2,1.8C1107,796.3,1109,800,1111.3,804z"/>
</svg>
